<?xml version="1.0" encoding="utf-8"?>
<!-- Generator: Adobe Illustrator 25.0.1, SVG Export Plug-In . SVG Version: 6.00 Build 0)  -->
<svg version="1.1" id="Layer_1" xmlns="http://www.w3.org/2000/svg" xmlns:xlink="http://www.w3.org/1999/xlink" x="0px" y="0px"
	 viewBox="0 0 265.8 75.1" style="enable-background:new 0 0 265.8 75.1;" xml:space="preserve">
<style type="text/css">
	.st0{fill:#001C75;}
	.st1{fill:#00F3C7;}
</style>
<g>
	<g>
		<g>
			<path class="st0" d="M65.1,74.5c-2.5,0-4.4-1.3-5.1-3.6c-0.1-0.4-0.1-0.4,0.1-0.4l0.7-0.3C61,70,61,70,61,70.2
				c0.5,1.9,2,3.1,4,3.1c2.5,0,3.7-1.2,3.7-3.2c0-2.2-1.3-3-3.6-3.6c-0.2,0-0.6-0.1-0.7-0.2c-2.4-0.7-4.1-1.8-4.1-4.5
				c0-2.7,1.6-4.5,4.6-4.5c2.6,0,4,1.7,4.6,3.7c0.1,0.2,0.1,0.3-0.1,0.4l-0.6,0.3c-0.1,0.1-0.2,0-0.2-0.1c-0.5-1.9-1.7-3.1-3.7-3.1
				c-2.5,0-3.5,1.3-3.5,3.1c0,2,1.4,2.9,3.3,3.4c0.2,0,0.5,0.1,0.7,0.2c2.4,0.6,4.3,1.8,4.3,4.6C69.8,72.9,68,74.5,65.1,74.5z"/>
			<path class="st0" d="M78.3,74.5c-3.9,0-6.8-3.9-6.8-8.6c0-4.8,2.9-8.7,6.8-8.7c3.9,0,6.8,3.9,6.8,8.7
				C85.1,70.6,82.2,74.5,78.3,74.5z M78.3,58.4c-3.2,0-5.7,3.4-5.7,7.4c0,4.1,2.5,7.4,5.7,7.4c3.2,0,5.7-3.3,5.7-7.4
				C84,61.8,81.6,58.4,78.3,58.4z"/>
			<path class="st0" d="M92.1,74.5c-3.1,0-5-2.4-5-6.7l0-10.1c0-0.2,0-0.2,0.1-0.2c0.9,0,0.6,0,0.8,0c0.1,0,0.1,0,0.1,0.2l0,10
				c0,3.9,1.5,5.5,4,5.5c2.4,0,4-1.6,4-5.5l0-10.1c0-0.1,0-0.2,0.1-0.2c0.2,0,0.7,0,0.9,0c0.1,0,0.1,0,0.1,0.2l0,10.1
				C97.1,72,95.1,74.5,92.1,74.5z"/>
			<path class="st0" d="M109.6,74.1l-0.8,0c-0.1,0-0.2,0-0.3-0.2l-3.5-6.3l-4.4,0c0,0,0,6,0,6.3c0,0.2,0,0.2-0.1,0.2
				c-0.2,0-0.6,0-0.8,0c-0.1,0-0.1,0-0.1-0.2c0-0.4,0-15.8,0-16.1c0-0.2,0.1-0.2,0.1-0.2l5,0c2.6,0,4.3,2.4,4.3,5.2
				c0,2.4-1.2,4-2.8,4.7c0,0,2.2,3.9,3.6,6.3c0.1,0.1,0.1,0.2,0.1,0.3C109.8,74.1,109.7,74.1,109.6,74.1z M104.6,58.7l-4,0l0,7.7
				l3.9,0c2.2,0,3.4-1.6,3.4-3.7C107.9,60.3,106.4,58.7,104.6,58.7z"/>
			<path class="st0" d="M117.4,74.5c-4,0-6.8-3.7-6.8-8.6c0-4.8,2.9-8.7,6.8-8.7c3.3,0,5.2,2.2,5.8,4.5c0.1,0.2,0.1,0.4,0,0.4
				l-0.6,0.3c-0.1,0-0.2,0-0.3-0.2c-0.6-1.9-2.2-3.7-4.9-3.7c-3.2,0-5.6,3.4-5.6,7.4c0,4.1,2.4,7.4,5.7,7.4c2.8,0,4.1-2,4.9-3.8
				c0.1-0.3,0.2-0.3,0.3-0.2l0.5,0.4c0.1,0.1,0.1,0.1,0,0.4C122.2,72.5,120.4,74.5,117.4,74.5z"/>
			<path class="st0" d="M134.1,74.1l-8.4,0c-0.2,0-0.2,0-0.2-0.3c0-0.4,0-15.6,0-16c0-0.2,0-0.2,0.1-0.2l8.4,0c0.2,0,0.2,0,0.2,0.3
				c0,0.2,0,0.4,0,0.6c0,0.3,0,0.3-0.2,0.3l-7.4,0l0,6.3l7.3,0c0.1,0,0.1,0,0.1,0.3c0,0.2,0,0.3,0,0.5c0,0.3,0,0.4-0.1,0.4l-7.3,0
				l0,6.6l7.5,0c0.2,0,0.2,0,0.2,0.3c0,0.2,0,0.4,0,0.6C134.3,74.1,134.3,74.1,134.1,74.1z"/>
			<path class="st0" d="M146.1,74.1l-5.2,0c-0.1,0-0.1-0.1-0.1-0.2c0-0.6,0-15.4,0-16.1c0-0.2,0-0.2,0.1-0.2l5.4,0
				c3.2,0,6.1,2.7,6.1,8.2C152.3,70.5,149.7,74.1,146.1,74.1z M146,58.8l-4.2,0l0,14.1l4.1,0c3.1,0,5.2-3,5.2-7.2
				C151.1,61.1,148.9,58.8,146,58.8z"/>
			<path class="st0" d="M155.7,74.1c-0.2,0-0.5,0-0.7,0c-0.2,0-0.2,0-0.2-0.2c0-0.2,0-15.8,0-16c0-0.3,0-0.3,0.2-0.3
				c0.2,0,0.5,0,0.7,0c0.1,0,0.2,0,0.2,0.3c0,0.2,0,15.8,0,16C155.8,74.1,155.8,74.1,155.7,74.1z"/>
			<path class="st0" d="M170.9,74.4c-0.1,0-0.2,0-0.3-0.2l-1.2-1.6c-1,1-2.2,1.9-4.2,1.9c-4.1,0-6.8-3.9-6.8-8.6
				c0-4.8,2.9-8.7,6.8-8.7c3.1,0,4.7,2,5.6,3.8c0.1,0.1,0.1,0.3-0.1,0.4l-0.7,0.4c-0.1,0-0.2,0-0.2-0.1c-0.6-1.6-2.2-3.2-4.6-3.2
				c-3.2,0-5.7,3.4-5.7,7.5c0,4.1,2.5,7.5,5.7,7.5c2.3,0,4.2-1.6,5-3.9c0.1-0.1,0.1-0.2,0.2-0.2l0.7,0c0.1,0,0.1,0,0.1,0.3l0,4.6
				C171.1,74.3,171,74.4,170.9,74.4z"/>
			<path class="st0" d="M174.8,74.1c-0.2,0-0.5,0-0.7,0c-0.2,0-0.2,0-0.2-0.2c0-0.2,0-15.8,0-16c0-0.3,0-0.3,0.2-0.3
				c0.2,0,0.5,0,0.7,0c0.1,0,0.2,0,0.2,0.3c0,0.2,0,15.8,0,16C174.9,74.1,174.9,74.1,174.8,74.1z"/>
			<path class="st0" d="M186.7,58.8l-4.3,0c0,0,0,14.5,0,15.1c0,0.2,0,0.2-0.1,0.2c-0.2,0-0.5,0-0.7,0c-0.2,0-0.2,0-0.2-0.3
				c0-0.6,0-15.1,0-15.1l-4.3,0c-0.1,0-0.1,0-0.1-0.2c0-0.2,0-0.6,0-0.8s0-0.2,0.2-0.2l9.7,0c0.2,0,0.2,0,0.2,0.2c0,0.3,0,0.6,0,0.8
				C186.9,58.8,186.9,58.8,186.7,58.8z"/>
			<path class="st0" d="M198.4,74.1c-0.5,0-0.8,0-0.8,0c-0.1,0-0.1,0-0.2-0.2l-1.4-3.8l-7.8,0l-1.4,3.7c-0.1,0.2-0.1,0.3-0.3,0.3
				c-0.3,0-0.5,0-0.7,0c-0.2,0-0.3,0-0.2-0.3c0.7-1.8,5.1-13.4,6.3-16.5c0-0.1,0.1-0.2,0.2-0.2s0.1,0.1,0.2,0.2
				c1.2,3.1,5.5,14.4,6.3,16.5C198.6,74,198.5,74.1,198.4,74.1z M192.4,60.7c-0.2-0.4-0.4-1.1-0.4-1.1c0,0-0.3,0.7-0.4,1
				c-1.2,3.2-3.1,8.3-3.1,8.3l7,0C195.5,69,193.6,63.9,192.4,60.7z"/>
			<path class="st0" d="M207.4,74.1l-7.5,0c-0.1,0-0.1,0-0.1-0.2c0-0.4,0-16,0-16.2c0-0.1,0-0.2,0.1-0.2c0.2,0,0.7,0,0.8,0
				c0.1,0,0.1,0,0.1,0.2c0,0.2,0,15.2,0,15.2l6.6,0c0.2,0,0.2,0,0.2,0.2l0,0.7C207.6,74.1,207.6,74.1,207.4,74.1z"/>
		</g>
		<g>
			<g>
				<path class="st1" d="M2.8,2.1l8.3,0L20,32.7l8.9-30.6l8.1,0L23.2,45.9l-6.6,0L2.8,2.1z"/>
				<path class="st0" d="M38.6,23.9v-0.1c0-12.4,7.7-22.5,18.2-22.5s18.1,10,18.1,22.4v0.1c0,12.4-7.7,22.5-18.2,22.5
					C46.1,46.3,38.6,36.3,38.6,23.9z M67,24v-0.1c0-7.5-4.3-13.7-10.3-13.7c-6,0-10.2,6.1-10.2,13.5v0.1c0,7.5,4.3,13.7,10.3,13.7
					C62.8,37.5,67,31.4,67,24z"/>
				<path class="st0" d="M81.5,2.1l7.5,0l0,34.8l17,0l0,8.7l-24.5,0L81.5,2.1z"/>
				<path class="st0" d="M108.2,24v-0.1c0-12.4,7.3-22.5,17.8-22.5c6.4,0,10.3,2.7,13.4,6.7l-4.8,7c-2.6-3-5.3-4.9-8.7-4.9
					c-5.7,0-9.9,6.1-9.9,13.5v0.1c0,7.5,4,13.7,9.9,13.7c3.9,0,6.3-2,9-5.1l4.8,6.2c-3.5,4.8-7.4,7.8-14,7.8
					C115.6,46.3,108.1,36.5,108.2,24z"/>
				<path class="st0" d="M189.5,2.2l6.9,0l16,26.8l0-26.8l7.4,0l0,43.5l-6.4,0L196.8,18l0,27.6l-7.4,0L189.5,2.2z"/>
				<path class="st0" d="M226.4,24.1v-0.1c0-12.4,7.7-22.5,18.2-22.5s18.1,10,18.1,22.4V24c0,12.4-7.7,22.5-18.2,22.5
					C233.9,46.4,226.4,36.4,226.4,24.1z M254.8,24.1v-0.1c0-7.5-4.3-13.7-10.3-13.7c-6,0-10.2,6.1-10.2,13.5v0.1
					c0,7.5,4.3,13.7,10.3,13.7C250.6,37.6,254.8,31.5,254.8,24.1z"/>
			</g>
			<g>
				<path class="st1" d="M163.1,6.9c0.4,0,0.8-0.3,0.8-0.8c0-0.4-0.3-0.8-0.8-0.8c-0.4,0-0.8,0.3-0.8,0.8
					C162.3,6.6,162.7,6.9,163.1,6.9z"/>
				<path class="st1" d="M161.3,10.5c0-0.5-0.4-0.9-0.9-0.9s-0.9,0.4-0.9,0.9c0,0.5,0.4,0.9,0.9,0.9S161.3,11,161.3,10.5z"/>
				<path class="st1" d="M165.9,11.4c0.5,0,0.9-0.4,0.9-0.9c0-0.5-0.4-0.9-0.9-0.9s-0.9,0.4-0.9,0.9C165,11,165.4,11.4,165.9,11.4z"
					/>
				<path class="st1" d="M167.1,1.9h-7.9l-20.4,43.9l8.1-0.1l9.5-20.1c0,0.4,3.2,0.8,7.1,0.8c3.9,0,7.1-0.4,7.1-0.8l8.3,20.1
					l8.7,0.1L167.1,1.9z M165.9,9c0.9,0,1.6,0.7,1.6,1.6c0,0.7-0.5,1.4-1.2,1.5v6l1.6,1.6v4.5h-0.7V20l-1.5-1.5h-0.1l0-0.1v-6.3
					c-0.7-0.2-1.2-0.8-1.2-1.5C164.3,9.7,165,9,165.9,9z M163.1,4.5c0.9,0,1.7,0.7,1.7,1.7c0,0.8-0.5,1.4-1.2,1.6v16.1h-0.9V7.8
					c-0.7-0.2-1.2-0.8-1.2-1.6C161.4,5.3,162.2,4.5,163.1,4.5z M158.5,19.7l1.6-1.6v-6c-0.7-0.2-1.2-0.8-1.2-1.5
					c0-0.9,0.7-1.6,1.6-1.6c0.9,0,1.6,0.7,1.6,1.6c0,0.7-0.5,1.4-1.2,1.5v6.4h-0.1l-1.5,1.5v4.2h-0.7V19.7z M156,21L156,21L156,21
					l-0.1-3.6c-0.7-0.2-1.2-0.8-1.2-1.5c0-0.9,0.7-1.6,1.6-1.6c0.9,0,1.6,0.7,1.6,1.6c0,0.7-0.5,1.4-1.2,1.5v3.3l0.7,0.7v3.5h-0.7
					v-3.3L156,21z M171.7,15.9c0,0.7-0.5,1.4-1.2,1.5V21h-0.1l-0.7,0.7v3.3H169v-3.5l0.7-0.7v-3.3c-0.7-0.2-1.2-0.8-1.2-1.5
					c0-0.9,0.7-1.6,1.6-1.6C171,14.3,171.7,15,171.7,15.9L171.7,15.9z"/>
				<path class="st1" d="M157.1,15.9c0-0.5-0.4-0.9-0.9-0.9c-0.5,0-0.9,0.4-0.9,0.9c0,0.5,0.4,0.9,0.9,0.9
					C156.7,16.7,157.1,16.3,157.1,15.9z"/>
				<path class="st1" d="M170.1,15c-0.5,0-0.9,0.4-0.9,0.9s0.4,0.9,0.9,0.9s0.9-0.4,0.9-0.9S170.6,15,170.1,15z"/>
			</g>
		</g>
	</g>
</g>
</svg>
