<svg id="Capa_1" data-name="Capa 1" xmlns="http://www.w3.org/2000/svg" xmlns:xlink="http://www.w3.org/1999/xlink" viewBox="0 0 1600 650"><defs><style>.cls-1{fill:#fff;}.cls-2{fill:#00f3c7;}.cls-3{fill:#001c75;}.cls-15,.cls-4{fill:none;stroke-miterlimit:10;}.cls-4{stroke:#130f13;}.cls-5{fill:#130f13;}.cls-6{fill:#020230;opacity:0.6;}.cls-7{fill:url(#Áåçûìÿííûé_ãðàäèåíò_113);}.cls-11,.cls-8{opacity:0.4;}.cls-11,.cls-12,.cls-9{fill:#06033e;}.cls-10{fill:url(#Áåçûìÿííûé_ãðàäèåíò_441);}.cls-12,.cls-14{opacity:0.5;}.cls-13{fill:url(#Áåçûìÿííûé_ãðàäèåíò_343);}.cls-15{stroke:#001c75;stroke-linecap:round;stroke-width:2px;}</style><radialGradient id="Áåçûìÿííûé_ãðàäèåíò_113" cx="11229.68" cy="342.37" r="223.3" gradientTransform="matrix(-1, 0, 0, 1, 11461.86, 0)" gradientUnits="userSpaceOnUse"><stop offset="0" stop-color="#e39a65"/><stop offset="0.47" stop-color="#a92ffb"/><stop offset="0.59" stop-color="#891cfb"/><stop offset="0.74" stop-color="#6507fa"/><stop offset="0.8" stop-color="#0d0c6f"/></radialGradient><linearGradient id="Áåçûìÿííûé_ãðàäèåíò_441" x1="11194.66" y1="447.58" x2="11373.63" y2="447.58" gradientTransform="matrix(-1, 0, 0, 1, 11461.86, 0)" gradientUnits="userSpaceOnUse"><stop offset="0" stop-color="#3919bb"/><stop offset="1" stop-color="#6507fa"/></linearGradient><radialGradient id="Áåçûìÿííûé_ãðàäèåíò_343" cx="11088.58" cy="341.26" r="347.85" gradientTransform="matrix(-1, 0, 0, 1, 11461.86, 0)" gradientUnits="userSpaceOnUse"><stop offset="0" stop-color="#e39a65"/><stop offset="0.47" stop-color="#a92ffb"/><stop offset="0.59" stop-color="#891cfb"/><stop offset="0.73" stop-color="#6507fa"/><stop offset="1" stop-color="#3919bb"/></radialGradient></defs><path class="cls-1" d="M-43.58-1.41V657.5H398.2c52-9.77,85.19-29.91,105.22-45.55C582.81,550,614.09,435.32,636,355a482.65,482.65,0,0,1,32.75-87.6c2.5-5.12,4.43-8.85,4.87-9.7,24.32-46.94,52.23-78,58-84.35,7.29-8,33.41-36,75.76-63.42,70.79-45.78,138.43-58.39,201.68-70.17,31.06-5.79,59.39-9,116.09-15.07,125-13.46,221.57-17.89,247.92-19.09C1507.45-.5,1600.5,1.5,1600.5.5c0-1.5-207.72-2.92-207.72-2.92C1242.39-2.62,870.94-2.51-43.58-1.41Z"/><path class="cls-2" d="M479.38,527.12A14.6,14.6,0,1,1,494,541.72,14.59,14.59,0,0,1,479.38,527.12Zm26.75,0A12.16,12.16,0,1,0,494,539.28h0A12.15,12.15,0,0,0,506.13,527.12Z"/><path class="cls-2" d="M119.65,65.67v-24h24v24Zm1.84-22.16V63.82h20.32V43.51Z"/><path class="cls-2" d="M29.28,145.94l17.56-16.38,16.37,17.56L45.66,163.5Zm17.47-13.77L31.89,146l13.86,14.86L60.6,147Z"/><circle class="cls-3" cx="46.31" cy="411.54" r="23.11"/><path class="cls-2" d="M769.92,44.52l17.56-16.37,16.37,17.56L786.29,62.08Zm17.46-13.76L772.53,44.62l13.85,14.85,14.86-13.85Z"/><path class="cls-3" d="M552.53,412.94l11.57-10.79,10.78,11.56L563.32,424.5ZM564,403.87,554.25,413l9.13,9.78,9.79-9.13Z"/><circle class="cls-2" cx="237.86" cy="257.2" r="5.18"/><circle class="cls-3" cx="180.16" cy="302.07" r="5.18"/><circle class="cls-3" cx="161.06" cy="347.54" r="5.18"/><circle class="cls-3" cx="174.87" cy="214.12" r="5.18"/><path class="cls-4" d="M538.11,187.58c-14.49,14.36-28.29,28-42.12,41.72-2.29,2.27-1.95,4.24.21,6.4q19.1,19.19,38.08,38.46c2.24,2.28,3.93,2.36,6.24.08,13.16-13.06,26.46-26,39.56-39.11.87-.86,1.22-3.73.54-4.43C566.72,216.38,552.64,202.24,538.11,187.58Z"/><circle class="cls-2" cx="540.63" cy="230.76" r="4.56"/><circle class="cls-2" cx="568.24" cy="288.93" r="4.56"/><circle class="cls-2" cx="603.71" cy="314.03" r="4.56"/><circle class="cls-2" cx="491.58" cy="276.72" r="4.56"/><path class="cls-2" d="M31.77,597.34,20,590.56a2.17,2.17,0,0,1,0-3.76L31.77,580a7,7,0,0,1,7,0l11.73,6.78a2.17,2.17,0,0,1,0,3.76l-11.73,6.78a7,7,0,0,1-7,0Zm.93-15.71L21,588.41a.31.31,0,0,0,0,.54l11.73,6.78a5.12,5.12,0,0,0,5.11,0h0L49.54,589a.31.31,0,0,0,0-.54l-11.73-6.78a5.14,5.14,0,0,0-5.11,0Z"/><path class="cls-3" d="M63.17,558.31,43,546.65a3.07,3.07,0,0,1,0-5.32l20.2-11.66a11.31,11.31,0,0,1,11.31,0l20.2,11.66a3.08,3.08,0,0,1,0,5.32l-20.2,11.66a11.34,11.34,0,0,1-11.31,0ZM93.75,545a1.22,1.22,0,0,0,0-2.1l-20.2-11.66a9.49,9.49,0,0,0-9.45,0L43.9,542.94a1.22,1.22,0,0,0,0,2.1L64.1,556.7a9.49,9.49,0,0,0,9.45,0Z"/><path class="cls-5" d="M424.39,576.66,404.19,565a3.08,3.08,0,0,1,0-5.32L424.39,548a11.36,11.36,0,0,1,11.31,0l20.2,11.66a3.08,3.08,0,0,1,0,5.32l-20.2,11.66a11.34,11.34,0,0,1-11.31,0Zm.93-27-20.2,11.67a1.18,1.18,0,0,0-.6,1,1.2,1.2,0,0,0,.6,1l20.2,11.66a9.49,9.49,0,0,0,9.45,0h0L455,563.39a1.22,1.22,0,0,0,0-2.1l-20.2-11.66a9.49,9.49,0,0,0-9.45,0Z"/><path class="cls-6" d="M225.5,629.05l144.43-83.39c2.11-1.22,1.84-3.34-.59-4.74l-92.7-53.52c-2.43-1.4-6.1-1.56-8.21-.34L124,570.45c-2.11,1.21-1.84,3.33.59,4.74l92.7,53.52C219.72,630.11,223.39,630.26,225.5,629.05Z"/><path class="cls-2" d="M216.43,642.64,104.06,576.81c-1.75-1-2.76-2.42-2.76-3.87a3.68,3.68,0,0,1,2.09-3.15l164.84-95.17c2.7-1.56,7.22-1.39,10.31.39L390.9,540.84c1.75,1,2.76,2.43,2.76,3.87a3.69,3.69,0,0,1-2.09,3.16L226.73,643h0a9.3,9.3,0,0,1-4.55,1.06A11.71,11.71,0,0,1,216.43,642.64Zm52.73-166.41L104.32,571.4a2,2,0,0,0-1.16,1.54c0,.76.69,1.6,1.84,2.26L217.36,641c2.47,1.42,6.34,1.6,8.44.38h0l164.83-95.16a2,2,0,0,0,1.16-1.55c0-.75-.68-1.59-1.84-2.26L277.6,476.62a10,10,0,0,0-4.85-1.2A7.38,7.38,0,0,0,269.16,476.23Z"/><path class="cls-7" d="M85.63,430.65l143.86-83.06a3.72,3.72,0,0,1,2.94-.42h0l2.67.93-.94.22a4.65,4.65,0,0,1,.88,1.65L267.58,455.6a6.36,6.36,0,0,1-2.64,7.11L121.08,545.76a4.18,4.18,0,0,1-1.06.44l.36.77-2.54-.89h0a4.08,4.08,0,0,1-2.31-2.69L83,437.75A6.37,6.37,0,0,1,85.63,430.65Z"/><path class="cls-2" d="M126.23,549.71l0,.06,142.1-82c2.09-1.21,5.74-1.06,8.15.34l91.81,53,3.06-1.17-.85,4.3h0a2.58,2.58,0,0,1-1.38,1.72L225.65,608.71c-2.09,1.21-5.74,1.06-8.15-.33l-92-53.14a3.7,3.7,0,0,1-2-2.28h0l-.88-4.18Z"/><path class="cls-3" d="M225.5,604.94l144.43-83.39c2.11-1.22,1.84-3.34-.59-4.74l-92.7-53.52c-2.43-1.4-6.1-1.56-8.21-.34L124,546.34c-2.11,1.21-1.84,3.33.59,4.74l92.7,53.52C219.72,606,223.39,606.15,225.5,604.94Z"/><path class="cls-1" d="M124.59,550l92.7,53.52c2.43,1.4,6.1,1.56,8.21.34l144.43-83.39a2.64,2.64,0,0,0,1.31-1.49,2.25,2.25,0,0,1-1.31,2.62L225.5,604.94c-2.11,1.21-5.78,1.06-8.21-.34l-92.7-53.52c-1.6-.93-2.24-2.16-1.9-3.25A3.77,3.77,0,0,0,124.59,550Z"/><g class="cls-8"><path class="cls-9" d="M301,508l4.87-2.82c.4-.22.35-.62-.1-.88L300.05,501a1.73,1.73,0,0,0-1.53-.07l-4.87,2.82c-.4.22-.35.62.11.88l5.75,3.32A1.73,1.73,0,0,0,301,508Z"/><path class="cls-9" d="M293.51,512.36l4.87-2.81c.4-.23.35-.62-.11-.88l-5.75-3.33a1.72,1.72,0,0,0-1.53-.06l-4.87,2.82c-.4.22-.35.62.11.88L292,512.3A1.69,1.69,0,0,0,293.51,512.36Z"/><path class="cls-9" d="M286,516.71l4.87-2.81c.4-.23.35-.62-.11-.89L285,509.69a1.69,1.69,0,0,0-1.53-.06l-4.87,2.81c-.4.23-.35.62.11.89l5.75,3.32A1.69,1.69,0,0,0,286,516.71Z"/><path class="cls-9" d="M275.56,513.12l4.88-2.81c.39-.23.34-.62-.11-.89l-4.83-2.78a1.7,1.7,0,0,0-1.53-.07l-4.88,2.82c-.39.22-.34.62.11.88l4.84,2.79A1.67,1.67,0,0,0,275.56,513.12Z"/><path class="cls-9" d="M268,517.47l4.88-2.82c.39-.22.34-.62-.11-.88L268,511a1.69,1.69,0,0,0-1.53-.06l-4.88,2.81c-.39.23-.34.63.11.89l4.84,2.79A1.67,1.67,0,0,0,268,517.47Z"/><path class="cls-9" d="M260.5,521.82l4.88-2.82c.39-.22.34-.62-.11-.88l-4.83-2.79a1.69,1.69,0,0,0-1.53-.06L254,518.08c-.39.23-.34.62.11.88l4.84,2.79A1.71,1.71,0,0,0,260.5,521.82Z"/><path class="cls-9" d="M253,526.16l4.88-2.81c.39-.23.34-.62-.11-.88l-4.83-2.79a1.73,1.73,0,0,0-1.53-.07l-4.88,2.82c-.39.23-.34.62.11.88l4.84,2.79A1.67,1.67,0,0,0,253,526.16Z"/><path class="cls-9" d="M245.44,530.51l4.88-2.81c.39-.23.34-.62-.11-.89L245.38,524a1.7,1.7,0,0,0-1.53-.07L239,526.78c-.39.22-.34.62.11.88l4.83,2.79A1.69,1.69,0,0,0,245.44,530.51Z"/><path class="cls-9" d="M237.91,534.86l4.88-2.82c.39-.22.34-.62-.11-.88l-4.83-2.79a1.69,1.69,0,0,0-1.53-.06l-4.88,2.82c-.39.22-.34.62.11.88l4.83,2.79A1.69,1.69,0,0,0,237.91,534.86Z"/><path class="cls-9" d="M230.38,539.21l4.88-2.82c.39-.22.34-.62-.11-.88l-4.83-2.79a1.69,1.69,0,0,0-1.53-.06l-4.88,2.81c-.39.23-.34.62.11.88l4.83,2.79A1.7,1.7,0,0,0,230.38,539.21Z"/><path class="cls-9" d="M222.85,543.55l4.88-2.81c.39-.23.34-.62-.11-.88l-4.83-2.79a1.73,1.73,0,0,0-1.53-.07l-4.88,2.82c-.39.23-.34.62.11.88l4.83,2.79A1.69,1.69,0,0,0,222.85,543.55Z"/><path class="cls-9" d="M215.32,547.9l4.88-2.81c.39-.23.34-.62-.11-.88l-4.83-2.79a1.7,1.7,0,0,0-1.53-.07l-4.88,2.82c-.39.22-.34.62.11.88l4.83,2.79A1.69,1.69,0,0,0,215.32,547.9Z"/><path class="cls-9" d="M207.79,552.25l4.88-2.82c.39-.22.34-.62-.11-.88l-4.83-2.79a1.69,1.69,0,0,0-1.53-.06l-4.88,2.82c-.39.22-.34.62.11.88l4.83,2.79A1.69,1.69,0,0,0,207.79,552.25Z"/><path class="cls-9" d="M264.47,511.06l4.87-2.81c.4-.23.35-.62-.11-.88l-4.83-2.79a1.71,1.71,0,0,0-1.52-.07L258,507.33c-.39.22-.34.62.11.88l4.83,2.79A1.69,1.69,0,0,0,264.47,511.06Z"/><path class="cls-9" d="M272.11,506.65l4.88-2.81c.39-.23.34-.63-.11-.89l-4.83-2.79a1.69,1.69,0,0,0-1.53-.06l-4.88,2.82c-.39.22-.34.62.11.88l4.83,2.79A1.69,1.69,0,0,0,272.11,506.65Z"/><path class="cls-9" d="M279.77,502.23l10.5-6.06c.39-.23.34-.62-.11-.88l-4.83-2.79a1.73,1.73,0,0,0-1.53-.07l-10.5,6.07c-.39.22-.35.62.11.88l4.83,2.79A1.69,1.69,0,0,0,279.77,502.23Z"/><path class="cls-9" d="M274.41,496.86l8.53-4.92c.39-.23.34-.63-.11-.89L278,488.26a1.73,1.73,0,0,0-1.53-.06L268,493.12c-.4.23-.35.62.11.88l4.83,2.79A1.71,1.71,0,0,0,274.41,496.86Z"/><path class="cls-9" d="M256.94,515.41l4.87-2.81c.4-.23.35-.63-.11-.89l-4.83-2.79a1.7,1.7,0,0,0-1.52-.06l-4.88,2.82c-.39.22-.34.62.11.88l4.83,2.79A1.69,1.69,0,0,0,256.94,515.41Z"/><path class="cls-9" d="M249.41,519.76l4.87-2.82c.4-.22.35-.62-.11-.88l-4.83-2.79a1.67,1.67,0,0,0-1.52-.06L242.94,516c-.39.23-.34.62.11.89l4.83,2.79A1.72,1.72,0,0,0,249.41,519.76Z"/><path class="cls-9" d="M241.88,524.11l4.87-2.82c.39-.23.35-.62-.11-.88l-4.83-2.79a1.69,1.69,0,0,0-1.53-.06l-4.87,2.81c-.39.23-.34.62.11.88l4.83,2.79A1.73,1.73,0,0,0,241.88,524.11Z"/><path class="cls-9" d="M234.35,528.45l4.87-2.81c.39-.23.35-.62-.11-.88L234.28,522a1.73,1.73,0,0,0-1.53-.07l-4.87,2.82c-.39.23-.34.62.11.88l4.83,2.79A1.69,1.69,0,0,0,234.35,528.45Z"/><path class="cls-9" d="M226.82,532.8l4.87-2.81c.39-.23.35-.62-.11-.89l-4.83-2.79a1.72,1.72,0,0,0-1.53-.06l-4.87,2.82c-.39.22-.34.62.11.88l4.83,2.79A1.69,1.69,0,0,0,226.82,532.8Z"/><path class="cls-9" d="M219.29,537.15l4.87-2.82c.39-.22.34-.62-.11-.88l-4.83-2.79a1.69,1.69,0,0,0-1.53-.06l-4.87,2.81c-.39.23-.34.63.11.89l4.83,2.79A1.72,1.72,0,0,0,219.29,537.15Z"/><path class="cls-9" d="M211.76,541.5l4.87-2.82c.39-.22.34-.62-.11-.88L211.69,535a1.69,1.69,0,0,0-1.53-.06l-4.87,2.81c-.39.23-.34.62.11.88l4.83,2.79A1.73,1.73,0,0,0,211.76,541.5Z"/><path class="cls-9" d="M204.23,545.84,209.1,543c.39-.23.34-.62-.11-.88l-4.83-2.79a1.73,1.73,0,0,0-1.53-.07l-4.87,2.82c-.39.23-.35.62.11.88l4.83,2.79A1.69,1.69,0,0,0,204.23,545.84Z"/><path class="cls-9" d="M196.7,550.19l4.87-2.81c.39-.23.34-.62-.11-.89l-4.83-2.78a1.7,1.7,0,0,0-1.53-.07l-4.87,2.82c-.39.22-.35.62.11.88l4.83,2.79A1.69,1.69,0,0,0,196.7,550.19Z"/><path class="cls-9" d="M183.31,557.92,194,551.78c.39-.23.34-.62-.11-.88L189,548.11a1.73,1.73,0,0,0-1.53-.07l-10.64,6.15c-.39.22-.34.62.11.88l4.83,2.79A1.69,1.69,0,0,0,183.31,557.92Z"/><path class="cls-9" d="M168.65,549.46l9-5.19c.39-.22.34-.62-.11-.88l-4.83-2.79a1.69,1.69,0,0,0-1.53-.06l-9,5.18c-.39.23-.34.62.11.88l4.83,2.79A1.73,1.73,0,0,0,168.65,549.46Z"/><path class="cls-9" d="M243.75,514.56l4.88-2.81c.39-.23.34-.63-.11-.89l-4.83-2.79a1.69,1.69,0,0,0-1.53-.06l-4.88,2.82c-.39.22-.34.62.11.88l4.83,2.79A1.69,1.69,0,0,0,243.75,514.56Z"/><path class="cls-9" d="M251.47,510.1l4.87-2.81c.4-.23.35-.62-.11-.88l-4.83-2.79a1.71,1.71,0,0,0-1.52-.07L245,506.37c-.39.23-.34.62.11.88l4.83,2.79A1.69,1.69,0,0,0,251.47,510.1Z"/><path class="cls-9" d="M259.19,505.65l4.87-2.82c.39-.22.34-.62-.11-.88l-4.83-2.79a1.69,1.69,0,0,0-1.53-.06l-4.87,2.81c-.39.23-.35.63.11.89l4.83,2.79A1.72,1.72,0,0,0,259.19,505.65Z"/><path class="cls-9" d="M266.9,501.19l4.88-2.81c.39-.23.34-.62-.11-.88l-4.83-2.79a1.73,1.73,0,0,0-1.53-.07l-4.88,2.82c-.39.22-.34.62.11.88l4.84,2.79A1.67,1.67,0,0,0,266.9,501.19Z"/><path class="cls-9" d="M236.22,518.91l4.88-2.82c.39-.22.34-.62-.11-.88l-4.83-2.79a1.69,1.69,0,0,0-1.53-.06l-4.88,2.81c-.39.23-.34.62.11.89l4.83,2.78A1.7,1.7,0,0,0,236.22,518.91Z"/><path class="cls-9" d="M228.69,523.26l4.88-2.82c.39-.23.34-.62-.11-.88l-4.83-2.79a1.69,1.69,0,0,0-1.53-.06l-4.88,2.81c-.39.23-.34.62.11.88l4.83,2.79A1.73,1.73,0,0,0,228.69,523.26Z"/><path class="cls-9" d="M221.16,527.6l4.88-2.81c.39-.23.34-.62-.11-.88l-4.84-2.79a1.71,1.71,0,0,0-1.52-.07l-4.88,2.82c-.39.22-.34.62.11.88l4.83,2.79A1.69,1.69,0,0,0,221.16,527.6Z"/><path class="cls-9" d="M213.63,532l4.88-2.81c.39-.23.34-.63-.11-.89l-4.84-2.79a1.67,1.67,0,0,0-1.52-.06l-4.88,2.82c-.39.22-.34.62.11.88l4.83,2.79A1.69,1.69,0,0,0,213.63,532Z"/><path class="cls-9" d="M206.1,536.3l4.88-2.82c.39-.22.34-.62-.11-.88L206,529.81a1.67,1.67,0,0,0-1.52-.06l-4.88,2.81c-.39.23-.34.62.11.89l4.83,2.78A1.7,1.7,0,0,0,206.1,536.3Z"/><path class="cls-9" d="M198.57,540.65l4.88-2.82c.39-.23.34-.62-.11-.88l-4.84-2.79a1.67,1.67,0,0,0-1.52-.06l-4.88,2.81c-.39.23-.34.62.11.88l4.83,2.79A1.73,1.73,0,0,0,198.57,540.65Z"/><path class="cls-9" d="M191,545l4.87-2.81c.4-.23.35-.62-.1-.88L191,538.51a1.71,1.71,0,0,0-1.52-.07l-4.88,2.82c-.39.22-.34.62.11.88l4.83,2.79A1.69,1.69,0,0,0,191,545Z"/><path class="cls-9" d="M183.51,549.34l4.87-2.81c.4-.23.35-.63-.11-.89l-4.83-2.79a1.7,1.7,0,0,0-1.52-.06L177,545.61c-.39.22-.34.62.11.88l4.83,2.79A1.69,1.69,0,0,0,183.51,549.34Z"/><path class="cls-9" d="M176,553.69l4.87-2.82c.4-.22.35-.62-.11-.88l-4.83-2.79a1.67,1.67,0,0,0-1.52-.06L169.51,550c-.39.23-.34.62.11.89l4.83,2.79A1.72,1.72,0,0,0,176,553.69Z"/><path class="cls-9" d="M247.72,503.81l4.87-2.82c.39-.22.34-.62-.11-.88l-4.83-2.79a1.69,1.69,0,0,0-1.53-.06l-4.87,2.81c-.39.23-.35.62.11.88l4.83,2.79A1.73,1.73,0,0,0,247.72,503.81Z"/><path class="cls-9" d="M255.21,499.48l4.87-2.81c.4-.23.35-.63-.1-.89L255.14,493a1.67,1.67,0,0,0-1.52-.06l-4.88,2.82c-.39.22-.34.62.11.88l4.83,2.79A1.69,1.69,0,0,0,255.21,499.48Z"/><path class="cls-9" d="M262.7,495.15l4.88-2.81c.39-.23.34-.62-.11-.88l-4.83-2.79a1.73,1.73,0,0,0-1.53-.07l-4.88,2.82c-.39.23-.34.62.11.88l4.83,2.79A1.69,1.69,0,0,0,262.7,495.15Z"/><path class="cls-9" d="M270.19,490.83l4.88-2.82c.39-.22.34-.62-.11-.88l-4.83-2.79a1.69,1.69,0,0,0-1.53-.06l-4.87,2.81c-.4.23-.35.63.11.89l4.83,2.79A1.7,1.7,0,0,0,270.19,490.83Z"/><path class="cls-9" d="M262.49,486.38l4.88-2.81c.39-.23.34-.63-.11-.89l-1.6-.92a1.69,1.69,0,0,0-1.53-.06l-4.87,2.81c-.4.23-.35.62.1.89l1.6.92A1.69,1.69,0,0,0,262.49,486.38Z"/><path class="cls-9" d="M252.71,492l4.88-2.82c.39-.23.34-.62-.11-.88l-1.6-.92a1.73,1.73,0,0,0-1.53-.07l-4.87,2.82c-.39.22-.35.62.11.88l1.59.92A1.73,1.73,0,0,0,252.71,492Z"/><path class="cls-9" d="M245.25,496.33l4.88-2.81c.39-.23.34-.62-.11-.88l-1.6-.93a1.72,1.72,0,0,0-1.53-.06L242,494.47c-.4.22-.35.62.1.88l1.6.92A1.69,1.69,0,0,0,245.25,496.33Z"/><path class="cls-9" d="M237.79,500.64l4.87-2.81c.4-.23.35-.62-.11-.89L241,496a1.69,1.69,0,0,0-1.53-.06l-4.88,2.81c-.39.23-.34.63.11.89l1.6.92A1.69,1.69,0,0,0,237.79,500.64Z"/><path class="cls-9" d="M230.33,505l4.87-2.82c.39-.22.35-.62-.11-.88l-1.59-.92a1.69,1.69,0,0,0-1.53-.06l-4.88,2.81c-.39.23-.34.62.11.88l1.6.93A1.69,1.69,0,0,0,230.33,505Z"/><path class="cls-9" d="M188.67,529l4.88-2.82c.39-.22.34-.62-.11-.88l-1.6-.92a1.69,1.69,0,0,0-1.53-.06l-4.87,2.81c-.4.23-.35.62.1.88l1.6.93A1.69,1.69,0,0,0,188.67,529Z"/><path class="cls-9" d="M181.21,533.31l4.87-2.82c.4-.22.35-.62-.11-.88l-1.59-.92a1.69,1.69,0,0,0-1.53-.06L178,531.44c-.39.23-.34.62.11.88l1.6.92A1.7,1.7,0,0,0,181.21,533.31Z"/><path class="cls-9" d="M173.75,537.62l4.87-2.82c.39-.23.34-.62-.11-.88l-1.59-.92a1.73,1.73,0,0,0-1.53-.07l-4.88,2.82c-.39.22-.34.62.11.88l1.6.92A1.73,1.73,0,0,0,173.75,537.62Z"/><path class="cls-9" d="M166.28,541.92l4.88-2.81c.39-.23.34-.62-.11-.88l-1.6-.93a1.7,1.7,0,0,0-1.52-.06l-4.88,2.82c-.39.22-.34.62.11.88l1.6.92A1.67,1.67,0,0,0,166.28,541.92Z"/><path class="cls-9" d="M240.19,508.15l4.87-2.81c.39-.23.34-.62-.11-.88l-4.83-2.79a1.73,1.73,0,0,0-1.53-.07l-4.87,2.82c-.39.23-.35.62.11.88l4.83,2.79A1.69,1.69,0,0,0,240.19,508.15Z"/><path class="cls-9" d="M232.66,512.5l4.87-2.81c.39-.23.34-.62-.11-.89L232.59,506a1.7,1.7,0,0,0-1.53-.07l-4.87,2.82c-.39.22-.35.62.11.88l4.83,2.79A1.69,1.69,0,0,0,232.66,512.5Z"/><path class="cls-9" d="M225.12,516.85,230,514c.39-.22.34-.62-.11-.88l-4.83-2.79a1.69,1.69,0,0,0-1.53-.06l-4.87,2.81c-.4.23-.35.63.11.89l4.83,2.79A1.67,1.67,0,0,0,225.12,516.85Z"/><path class="cls-9" d="M217.59,521.2l4.88-2.82c.39-.22.34-.62-.11-.88l-4.83-2.79a1.69,1.69,0,0,0-1.53-.06l-4.87,2.81c-.4.23-.35.62.11.88l4.83,2.79A1.71,1.71,0,0,0,217.59,521.2Z"/><path class="cls-9" d="M210.06,525.54l4.88-2.81c.39-.23.34-.62-.11-.88L210,519.06a1.73,1.73,0,0,0-1.53-.07l-4.87,2.82c-.4.23-.35.62.11.88l4.83,2.79A1.67,1.67,0,0,0,210.06,525.54Z"/><path class="cls-9" d="M202.53,529.89l4.88-2.81c.39-.23.34-.62-.11-.88l-4.83-2.79a1.7,1.7,0,0,0-1.53-.07l-4.87,2.82c-.4.22-.35.62.11.88l4.83,2.79A1.67,1.67,0,0,0,202.53,529.89Z"/><path class="cls-9" d="M195,534.24l4.88-2.82c.39-.22.34-.62-.11-.88l-4.83-2.79a1.69,1.69,0,0,0-1.53-.06l-4.87,2.82c-.4.22-.35.62.1.88l4.84,2.79A1.67,1.67,0,0,0,195,534.24Z"/><path class="cls-9" d="M187.47,538.59l4.88-2.82c.39-.22.34-.62-.11-.88l-4.83-2.79a1.69,1.69,0,0,0-1.53-.06L181,534.85c-.4.23-.35.62.1.88l4.84,2.79A1.67,1.67,0,0,0,187.47,538.59Z"/><path class="cls-9" d="M179.94,542.94l4.88-2.82c.39-.23.34-.62-.11-.88l-4.83-2.79a1.69,1.69,0,0,0-1.53-.06l-4.88,2.81c-.39.23-.34.62.11.88l4.84,2.79A1.71,1.71,0,0,0,179.94,542.94Z"/><path class="cls-9" d="M283.24,508.69l14.36-8.29c.39-.23.34-.62-.11-.88l-4.83-2.79a1.69,1.69,0,0,0-1.53-.06L276.77,505c-.39.22-.34.62.11.88l4.83,2.79A1.69,1.69,0,0,0,283.24,508.69Z"/><path class="cls-9" d="M190.73,562.1l14.36-8.29c.39-.22.34-.62-.11-.88l-4.83-2.79a1.69,1.69,0,0,0-1.53-.06l-14.36,8.29c-.39.22-.34.62.11.88L189.2,562A1.69,1.69,0,0,0,190.73,562.1Z"/><path class="cls-9" d="M220.84,554.32l4.88-2.82c.39-.22.34-.62-.11-.88l-5.76-3.32a1.69,1.69,0,0,0-1.53-.06l-4.87,2.81c-.39.23-.34.62.11.88l5.75,3.33A1.69,1.69,0,0,0,220.84,554.32Z"/><path class="cls-9" d="M275.53,522.75l7.79-4.51c.4-.22.35-.62-.11-.88L277.46,514a1.69,1.69,0,0,0-1.53-.06l-7.8,4.5c-.39.22-.34.62.11.88l5.76,3.32A1.73,1.73,0,0,0,275.53,522.75Z"/><path class="cls-9" d="M228.1,550.13l7.79-4.5c.4-.23.35-.62-.11-.88L230,541.42a1.69,1.69,0,0,0-1.53-.06l-7.8,4.5c-.39.23-.34.62.11.88l5.76,3.33A1.69,1.69,0,0,0,228.1,550.13Z"/><path class="cls-9" d="M264.66,529l7.8-4.5c.39-.23.34-.62-.11-.88l-5.76-3.33a1.67,1.67,0,0,0-1.52-.06l-7.8,4.5c-.39.23-.34.62.11.88l5.75,3.33A1.69,1.69,0,0,0,264.66,529Z"/><path class="cls-9" d="M265,520.28l-33.9,19.57c-.42.25-.42.64,0,.88l5.87,3.39a1.63,1.63,0,0,0,1.52,0l33.91-19.57Z"/><path class="cls-9" d="M199.79,562.2l-5.43,3.14c-.32.18-.28.51.09.72l2.36,1.36a1.38,1.38,0,0,0,1.25.05l5.43-3.13c.32-.19.28-.51-.09-.73l-2.35-1.36A1.44,1.44,0,0,0,199.79,562.2Z"/><path class="cls-9" d="M207.39,557.82,202,561c-.32.19-.28.51.09.73L204.4,563a1.42,1.42,0,0,0,1.25.05l5.43-3.14c.32-.18.28-.51-.09-.72l-2.35-1.36A1.38,1.38,0,0,0,207.39,557.82Z"/><path class="cls-9" d="M214.92,553.47l-5.43,3.14c-.32.18-.28.51.09.72l2.35,1.36a1.38,1.38,0,0,0,1.25,0l5.43-3.14c.33-.18.28-.5-.09-.72l-2.35-1.36A1.42,1.42,0,0,0,214.92,553.47Z"/><path class="cls-9" d="M203.23,555.42l-5.43,3.13c-.32.19-.28.51.09.73l2.35,1.36a1.42,1.42,0,0,0,1.25.05l5.44-3.14c.32-.18.28-.51-.09-.72l-2.36-1.36A1.38,1.38,0,0,0,203.23,555.42Z"/></g><g class="cls-8"><path class="cls-9" d="M301,508l4.87-2.82c.4-.22.35-.62-.1-.88L300.05,501a1.73,1.73,0,0,0-1.53-.07l-4.87,2.82c-.4.22-.35.62.11.88l5.75,3.32A1.73,1.73,0,0,0,301,508Z"/><path class="cls-9" d="M293.51,512.36l4.87-2.81c.4-.23.35-.62-.11-.88l-5.75-3.33a1.72,1.72,0,0,0-1.53-.06l-4.87,2.82c-.4.22-.35.62.11.88L292,512.3A1.69,1.69,0,0,0,293.51,512.36Z"/><path class="cls-9" d="M286,516.71l4.87-2.81c.4-.23.35-.62-.11-.89L285,509.69a1.69,1.69,0,0,0-1.53-.06l-4.87,2.81c-.4.23-.35.62.11.89l5.75,3.32A1.69,1.69,0,0,0,286,516.71Z"/><path class="cls-9" d="M275.56,513.12l4.88-2.81c.39-.23.34-.62-.11-.89l-4.83-2.78a1.7,1.7,0,0,0-1.53-.07l-4.88,2.82c-.39.22-.34.62.11.88l4.84,2.79A1.67,1.67,0,0,0,275.56,513.12Z"/><path class="cls-9" d="M268,517.47l4.88-2.82c.39-.22.34-.62-.11-.88L268,511a1.69,1.69,0,0,0-1.53-.06l-4.88,2.81c-.39.23-.34.63.11.89l4.84,2.79A1.67,1.67,0,0,0,268,517.47Z"/><path class="cls-9" d="M260.5,521.82l4.88-2.82c.39-.22.34-.62-.11-.88l-4.83-2.79a1.69,1.69,0,0,0-1.53-.06L254,518.08c-.39.23-.34.62.11.88l4.84,2.79A1.71,1.71,0,0,0,260.5,521.82Z"/><path class="cls-9" d="M253,526.16l4.88-2.81c.39-.23.34-.62-.11-.88l-4.83-2.79a1.73,1.73,0,0,0-1.53-.07l-4.88,2.82c-.39.23-.34.62.11.88l4.84,2.79A1.67,1.67,0,0,0,253,526.16Z"/><path class="cls-9" d="M245.44,530.51l4.88-2.81c.39-.23.34-.62-.11-.89L245.38,524a1.7,1.7,0,0,0-1.53-.07L239,526.78c-.39.22-.34.62.11.88l4.83,2.79A1.69,1.69,0,0,0,245.44,530.51Z"/><path class="cls-9" d="M237.91,534.86l4.88-2.82c.39-.22.34-.62-.11-.88l-4.83-2.79a1.69,1.69,0,0,0-1.53-.06l-4.88,2.82c-.39.22-.34.62.11.88l4.83,2.79A1.69,1.69,0,0,0,237.91,534.86Z"/><path class="cls-9" d="M230.38,539.21l4.88-2.82c.39-.22.34-.62-.11-.88l-4.83-2.79a1.69,1.69,0,0,0-1.53-.06l-4.88,2.81c-.39.23-.34.62.11.88l4.83,2.79A1.7,1.7,0,0,0,230.38,539.21Z"/><path class="cls-9" d="M222.85,543.55l4.88-2.81c.39-.23.34-.62-.11-.88l-4.83-2.79a1.73,1.73,0,0,0-1.53-.07l-4.88,2.82c-.39.23-.34.62.11.88l4.83,2.79A1.69,1.69,0,0,0,222.85,543.55Z"/><path class="cls-9" d="M215.32,547.9l4.88-2.81c.39-.23.34-.62-.11-.88l-4.83-2.79a1.7,1.7,0,0,0-1.53-.07l-4.88,2.82c-.39.22-.34.62.11.88l4.83,2.79A1.69,1.69,0,0,0,215.32,547.9Z"/><path class="cls-9" d="M207.79,552.25l4.88-2.82c.39-.22.34-.62-.11-.88l-4.83-2.79a1.69,1.69,0,0,0-1.53-.06l-4.88,2.82c-.39.22-.34.62.11.88l4.83,2.79A1.69,1.69,0,0,0,207.79,552.25Z"/><path class="cls-9" d="M264.47,511.06l4.87-2.81c.4-.23.35-.62-.11-.88l-4.83-2.79a1.71,1.71,0,0,0-1.52-.07L258,507.33c-.39.22-.34.62.11.88l4.83,2.79A1.69,1.69,0,0,0,264.47,511.06Z"/><path class="cls-9" d="M272.11,506.65l4.88-2.81c.39-.23.34-.63-.11-.89l-4.83-2.79a1.69,1.69,0,0,0-1.53-.06l-4.88,2.82c-.39.22-.34.62.11.88l4.83,2.79A1.69,1.69,0,0,0,272.11,506.65Z"/><path class="cls-9" d="M279.77,502.23l10.5-6.06c.39-.23.34-.62-.11-.88l-4.83-2.79a1.73,1.73,0,0,0-1.53-.07l-10.5,6.07c-.39.22-.35.62.11.88l4.83,2.79A1.69,1.69,0,0,0,279.77,502.23Z"/><path class="cls-9" d="M274.41,496.86l8.53-4.92c.39-.23.34-.63-.11-.89L278,488.26a1.73,1.73,0,0,0-1.53-.06L268,493.12c-.4.23-.35.62.11.88l4.83,2.79A1.71,1.71,0,0,0,274.41,496.86Z"/><path class="cls-9" d="M256.94,515.41l4.87-2.81c.4-.23.35-.63-.11-.89l-4.83-2.79a1.7,1.7,0,0,0-1.52-.06l-4.88,2.82c-.39.22-.34.62.11.88l4.83,2.79A1.69,1.69,0,0,0,256.94,515.41Z"/><path class="cls-9" d="M249.41,519.76l4.87-2.82c.4-.22.35-.62-.11-.88l-4.83-2.79a1.67,1.67,0,0,0-1.52-.06L242.94,516c-.39.23-.34.62.11.89l4.83,2.79A1.72,1.72,0,0,0,249.41,519.76Z"/><path class="cls-9" d="M241.88,524.11l4.87-2.82c.39-.23.35-.62-.11-.88l-4.83-2.79a1.69,1.69,0,0,0-1.53-.06l-4.87,2.81c-.39.23-.34.62.11.88l4.83,2.79A1.73,1.73,0,0,0,241.88,524.11Z"/><path class="cls-9" d="M234.35,528.45l4.87-2.81c.39-.23.35-.62-.11-.88L234.28,522a1.73,1.73,0,0,0-1.53-.07l-4.87,2.82c-.39.23-.34.62.11.88l4.83,2.79A1.69,1.69,0,0,0,234.35,528.45Z"/><path class="cls-9" d="M226.82,532.8l4.87-2.81c.39-.23.35-.62-.11-.89l-4.83-2.79a1.72,1.72,0,0,0-1.53-.06l-4.87,2.82c-.39.22-.34.62.11.88l4.83,2.79A1.69,1.69,0,0,0,226.82,532.8Z"/><path class="cls-9" d="M219.29,537.15l4.87-2.82c.39-.22.34-.62-.11-.88l-4.83-2.79a1.69,1.69,0,0,0-1.53-.06l-4.87,2.81c-.39.23-.34.63.11.89l4.83,2.79A1.72,1.72,0,0,0,219.29,537.15Z"/><path class="cls-9" d="M211.76,541.5l4.87-2.82c.39-.22.34-.62-.11-.88L211.69,535a1.69,1.69,0,0,0-1.53-.06l-4.87,2.81c-.39.23-.34.62.11.88l4.83,2.79A1.73,1.73,0,0,0,211.76,541.5Z"/><path class="cls-9" d="M204.23,545.84,209.1,543c.39-.23.34-.62-.11-.88l-4.83-2.79a1.73,1.73,0,0,0-1.53-.07l-4.87,2.82c-.39.23-.35.62.11.88l4.83,2.79A1.69,1.69,0,0,0,204.23,545.84Z"/><path class="cls-9" d="M196.7,550.19l4.87-2.81c.39-.23.34-.62-.11-.89l-4.83-2.78a1.7,1.7,0,0,0-1.53-.07l-4.87,2.82c-.39.22-.35.62.11.88l4.83,2.79A1.69,1.69,0,0,0,196.7,550.19Z"/><path class="cls-9" d="M183.31,557.92,194,551.78c.39-.23.34-.62-.11-.88L189,548.11a1.73,1.73,0,0,0-1.53-.07l-10.64,6.15c-.39.22-.34.62.11.88l4.83,2.79A1.69,1.69,0,0,0,183.31,557.92Z"/><path class="cls-9" d="M168.65,549.46l9-5.19c.39-.22.34-.62-.11-.88l-4.83-2.79a1.69,1.69,0,0,0-1.53-.06l-9,5.18c-.39.23-.34.62.11.88l4.83,2.79A1.73,1.73,0,0,0,168.65,549.46Z"/><path class="cls-9" d="M243.75,514.56l4.88-2.81c.39-.23.34-.63-.11-.89l-4.83-2.79a1.69,1.69,0,0,0-1.53-.06l-4.88,2.82c-.39.22-.34.62.11.88l4.83,2.79A1.69,1.69,0,0,0,243.75,514.56Z"/><path class="cls-9" d="M251.47,510.1l4.87-2.81c.4-.23.35-.62-.11-.88l-4.83-2.79a1.71,1.71,0,0,0-1.52-.07L245,506.37c-.39.23-.34.62.11.88l4.83,2.79A1.69,1.69,0,0,0,251.47,510.1Z"/><path class="cls-9" d="M259.19,505.65l4.87-2.82c.39-.22.34-.62-.11-.88l-4.83-2.79a1.69,1.69,0,0,0-1.53-.06l-4.87,2.81c-.39.23-.35.63.11.89l4.83,2.79A1.72,1.72,0,0,0,259.19,505.65Z"/><path class="cls-9" d="M266.9,501.19l4.88-2.81c.39-.23.34-.62-.11-.88l-4.83-2.79a1.73,1.73,0,0,0-1.53-.07l-4.88,2.82c-.39.22-.34.62.11.88l4.84,2.79A1.67,1.67,0,0,0,266.9,501.19Z"/><path class="cls-9" d="M236.22,518.91l4.88-2.82c.39-.22.34-.62-.11-.88l-4.83-2.79a1.69,1.69,0,0,0-1.53-.06l-4.88,2.81c-.39.23-.34.62.11.89l4.83,2.78A1.7,1.7,0,0,0,236.22,518.91Z"/><path class="cls-9" d="M228.69,523.26l4.88-2.82c.39-.23.34-.62-.11-.88l-4.83-2.79a1.69,1.69,0,0,0-1.53-.06l-4.88,2.81c-.39.23-.34.62.11.88l4.83,2.79A1.73,1.73,0,0,0,228.69,523.26Z"/><path class="cls-9" d="M221.16,527.6l4.88-2.81c.39-.23.34-.62-.11-.88l-4.84-2.79a1.71,1.71,0,0,0-1.52-.07l-4.88,2.82c-.39.22-.34.62.11.88l4.83,2.79A1.69,1.69,0,0,0,221.16,527.6Z"/><path class="cls-9" d="M213.63,532l4.88-2.81c.39-.23.34-.63-.11-.89l-4.84-2.79a1.67,1.67,0,0,0-1.52-.06l-4.88,2.82c-.39.22-.34.62.11.88l4.83,2.79A1.69,1.69,0,0,0,213.63,532Z"/><path class="cls-9" d="M206.1,536.3l4.88-2.82c.39-.22.34-.62-.11-.88L206,529.81a1.67,1.67,0,0,0-1.52-.06l-4.88,2.81c-.39.23-.34.62.11.89l4.83,2.78A1.7,1.7,0,0,0,206.1,536.3Z"/><path class="cls-9" d="M198.57,540.65l4.88-2.82c.39-.23.34-.62-.11-.88l-4.84-2.79a1.67,1.67,0,0,0-1.52-.06l-4.88,2.81c-.39.23-.34.62.11.88l4.83,2.79A1.73,1.73,0,0,0,198.57,540.65Z"/><path class="cls-9" d="M191,545l4.87-2.81c.4-.23.35-.62-.1-.88L191,538.51a1.71,1.71,0,0,0-1.52-.07l-4.88,2.82c-.39.22-.34.62.11.88l4.83,2.79A1.69,1.69,0,0,0,191,545Z"/><path class="cls-9" d="M183.51,549.34l4.87-2.81c.4-.23.35-.63-.11-.89l-4.83-2.79a1.7,1.7,0,0,0-1.52-.06L177,545.61c-.39.22-.34.62.11.88l4.83,2.79A1.69,1.69,0,0,0,183.51,549.34Z"/><path class="cls-9" d="M176,553.69l4.87-2.82c.4-.22.35-.62-.11-.88l-4.83-2.79a1.67,1.67,0,0,0-1.52-.06L169.51,550c-.39.23-.34.62.11.89l4.83,2.79A1.72,1.72,0,0,0,176,553.69Z"/><path class="cls-9" d="M247.72,503.81l4.87-2.82c.39-.22.34-.62-.11-.88l-4.83-2.79a1.69,1.69,0,0,0-1.53-.06l-4.87,2.81c-.39.23-.35.62.11.88l4.83,2.79A1.73,1.73,0,0,0,247.72,503.81Z"/><path class="cls-9" d="M255.21,499.48l4.87-2.81c.4-.23.35-.63-.1-.89L255.14,493a1.67,1.67,0,0,0-1.52-.06l-4.88,2.82c-.39.22-.34.62.11.88l4.83,2.79A1.69,1.69,0,0,0,255.21,499.48Z"/><path class="cls-9" d="M262.7,495.15l4.88-2.81c.39-.23.34-.62-.11-.88l-4.83-2.79a1.73,1.73,0,0,0-1.53-.07l-4.88,2.82c-.39.23-.34.62.11.88l4.83,2.79A1.69,1.69,0,0,0,262.7,495.15Z"/><path class="cls-9" d="M270.19,490.83l4.88-2.82c.39-.22.34-.62-.11-.88l-4.83-2.79a1.69,1.69,0,0,0-1.53-.06l-4.87,2.81c-.4.23-.35.63.11.89l4.83,2.79A1.7,1.7,0,0,0,270.19,490.83Z"/><path class="cls-9" d="M262.49,486.38l4.88-2.81c.39-.23.34-.63-.11-.89l-1.6-.92a1.69,1.69,0,0,0-1.53-.06l-4.87,2.81c-.4.23-.35.62.1.89l1.6.92A1.69,1.69,0,0,0,262.49,486.38Z"/><path class="cls-9" d="M252.71,492l4.88-2.82c.39-.23.34-.62-.11-.88l-1.6-.92a1.73,1.73,0,0,0-1.53-.07l-4.87,2.82c-.39.22-.35.62.11.88l1.59.92A1.73,1.73,0,0,0,252.71,492Z"/><path class="cls-9" d="M245.25,496.33l4.88-2.81c.39-.23.34-.62-.11-.88l-1.6-.93a1.72,1.72,0,0,0-1.53-.06L242,494.47c-.4.22-.35.62.1.88l1.6.92A1.69,1.69,0,0,0,245.25,496.33Z"/><path class="cls-9" d="M237.79,500.64l4.87-2.81c.4-.23.35-.62-.11-.89L241,496a1.69,1.69,0,0,0-1.53-.06l-4.88,2.81c-.39.23-.34.63.11.89l1.6.92A1.69,1.69,0,0,0,237.79,500.64Z"/><path class="cls-9" d="M230.33,505l4.87-2.82c.39-.22.35-.62-.11-.88l-1.59-.92a1.69,1.69,0,0,0-1.53-.06l-4.88,2.81c-.39.23-.34.62.11.88l1.6.93A1.69,1.69,0,0,0,230.33,505Z"/><path class="cls-9" d="M188.67,529l4.88-2.82c.39-.22.34-.62-.11-.88l-1.6-.92a1.69,1.69,0,0,0-1.53-.06l-4.87,2.81c-.4.23-.35.62.1.88l1.6.93A1.69,1.69,0,0,0,188.67,529Z"/><path class="cls-9" d="M181.21,533.31l4.87-2.82c.4-.22.35-.62-.11-.88l-1.59-.92a1.69,1.69,0,0,0-1.53-.06L178,531.44c-.39.23-.34.62.11.88l1.6.92A1.7,1.7,0,0,0,181.21,533.31Z"/><path class="cls-9" d="M173.75,537.62l4.87-2.82c.39-.23.34-.62-.11-.88l-1.59-.92a1.73,1.73,0,0,0-1.53-.07l-4.88,2.82c-.39.22-.34.62.11.88l1.6.92A1.73,1.73,0,0,0,173.75,537.62Z"/><path class="cls-9" d="M166.28,541.92l4.88-2.81c.39-.23.34-.62-.11-.88l-1.6-.93a1.7,1.7,0,0,0-1.52-.06l-4.88,2.82c-.39.22-.34.62.11.88l1.6.92A1.67,1.67,0,0,0,166.28,541.92Z"/><path class="cls-9" d="M240.19,508.15l4.87-2.81c.39-.23.34-.62-.11-.88l-4.83-2.79a1.73,1.73,0,0,0-1.53-.07l-4.87,2.82c-.39.23-.35.62.11.88l4.83,2.79A1.69,1.69,0,0,0,240.19,508.15Z"/><path class="cls-9" d="M232.66,512.5l4.87-2.81c.39-.23.34-.62-.11-.89L232.59,506a1.7,1.7,0,0,0-1.53-.07l-4.87,2.82c-.39.22-.35.62.11.88l4.83,2.79A1.69,1.69,0,0,0,232.66,512.5Z"/><path class="cls-9" d="M225.12,516.85,230,514c.39-.22.34-.62-.11-.88l-4.83-2.79a1.69,1.69,0,0,0-1.53-.06l-4.87,2.81c-.4.23-.35.63.11.89l4.83,2.79A1.67,1.67,0,0,0,225.12,516.85Z"/><path class="cls-9" d="M217.59,521.2l4.88-2.82c.39-.22.34-.62-.11-.88l-4.83-2.79a1.69,1.69,0,0,0-1.53-.06l-4.87,2.81c-.4.23-.35.62.11.88l4.83,2.79A1.71,1.71,0,0,0,217.59,521.2Z"/><path class="cls-9" d="M210.06,525.54l4.88-2.81c.39-.23.34-.62-.11-.88L210,519.06a1.73,1.73,0,0,0-1.53-.07l-4.87,2.82c-.4.23-.35.62.11.88l4.83,2.79A1.67,1.67,0,0,0,210.06,525.54Z"/><path class="cls-9" d="M202.53,529.89l4.88-2.81c.39-.23.34-.62-.11-.88l-4.83-2.79a1.7,1.7,0,0,0-1.53-.07l-4.87,2.82c-.4.22-.35.62.11.88l4.83,2.79A1.67,1.67,0,0,0,202.53,529.89Z"/><path class="cls-9" d="M195,534.24l4.88-2.82c.39-.22.34-.62-.11-.88l-4.83-2.79a1.69,1.69,0,0,0-1.53-.06l-4.87,2.82c-.4.22-.35.62.1.88l4.84,2.79A1.67,1.67,0,0,0,195,534.24Z"/><path class="cls-9" d="M187.47,538.59l4.88-2.82c.39-.22.34-.62-.11-.88l-4.83-2.79a1.69,1.69,0,0,0-1.53-.06L181,534.85c-.4.23-.35.62.1.88l4.84,2.79A1.67,1.67,0,0,0,187.47,538.59Z"/><path class="cls-9" d="M179.94,542.94l4.88-2.82c.39-.23.34-.62-.11-.88l-4.83-2.79a1.69,1.69,0,0,0-1.53-.06l-4.88,2.81c-.39.23-.34.62.11.88l4.84,2.79A1.71,1.71,0,0,0,179.94,542.94Z"/><path class="cls-9" d="M283.24,508.69l14.36-8.29c.39-.23.34-.62-.11-.88l-4.83-2.79a1.69,1.69,0,0,0-1.53-.06L276.77,505c-.39.22-.34.62.11.88l4.83,2.79A1.69,1.69,0,0,0,283.24,508.69Z"/><path class="cls-9" d="M190.73,562.1l14.36-8.29c.39-.22.34-.62-.11-.88l-4.83-2.79a1.69,1.69,0,0,0-1.53-.06l-14.36,8.29c-.39.22-.34.62.11.88L189.2,562A1.69,1.69,0,0,0,190.73,562.1Z"/><path class="cls-9" d="M220.84,554.32l4.88-2.82c.39-.22.34-.62-.11-.88l-5.76-3.32a1.69,1.69,0,0,0-1.53-.06l-4.87,2.81c-.39.23-.34.62.11.88l5.75,3.33A1.69,1.69,0,0,0,220.84,554.32Z"/><path class="cls-9" d="M275.53,522.75l7.79-4.51c.4-.22.35-.62-.11-.88L277.46,514a1.69,1.69,0,0,0-1.53-.06l-7.8,4.5c-.39.22-.34.62.11.88l5.76,3.32A1.73,1.73,0,0,0,275.53,522.75Z"/><path class="cls-9" d="M228.1,550.13l7.79-4.5c.4-.23.35-.62-.11-.88L230,541.42a1.69,1.69,0,0,0-1.53-.06l-7.8,4.5c-.39.23-.34.62.11.88l5.76,3.33A1.69,1.69,0,0,0,228.1,550.13Z"/><path class="cls-9" d="M264.66,529l7.8-4.5c.39-.23.34-.62-.11-.88l-5.76-3.33a1.67,1.67,0,0,0-1.52-.06l-7.8,4.5c-.39.23-.34.62.11.88l5.75,3.33A1.69,1.69,0,0,0,264.66,529Z"/><path class="cls-9" d="M265,520.28l-33.9,19.57c-.42.25-.42.64,0,.88l5.87,3.39a1.63,1.63,0,0,0,1.52,0l33.91-19.57Z"/><path class="cls-9" d="M199.79,562.2l-5.43,3.14c-.32.18-.28.51.09.72l2.36,1.36a1.38,1.38,0,0,0,1.25.05l5.43-3.13c.32-.19.28-.51-.09-.73l-2.35-1.36A1.44,1.44,0,0,0,199.79,562.2Z"/><path class="cls-9" d="M207.39,557.82,202,561c-.32.19-.28.51.09.73L204.4,563a1.42,1.42,0,0,0,1.25.05l5.43-3.14c.32-.18.28-.51-.09-.72l-2.35-1.36A1.38,1.38,0,0,0,207.39,557.82Z"/><path class="cls-9" d="M214.92,553.47l-5.43,3.14c-.32.18-.28.51.09.72l2.35,1.36a1.38,1.38,0,0,0,1.25,0l5.43-3.14c.33-.18.28-.5-.09-.72l-2.35-1.36A1.42,1.42,0,0,0,214.92,553.47Z"/><path class="cls-9" d="M203.23,555.42l-5.43,3.13c-.32.19-.28.51.09.73l2.35,1.36a1.42,1.42,0,0,0,1.25.05l5.44-3.14c.32-.18.28-.51-.09-.72l-2.36-1.36A1.38,1.38,0,0,0,203.23,555.42Z"/></g><path class="cls-3" d="M123.53,546.62,267.4,463.56a6.36,6.36,0,0,0,2.63-7.1L237.5,350.82c-.81-2.62-3.29-3.68-5.56-2.37L88.08,431.5a6.39,6.39,0,0,0-2.64,7.11L118,544.24C118.78,546.86,121.27,547.93,123.53,546.62Z"/><path class="cls-10" d="M124.89,542.92l139.54-80.63a6.1,6.1,0,0,0,2.52-6.8l-31.1-101c-.77-2.51-3.15-3.53-5.32-2.28L91,432.86a6.11,6.11,0,0,0-2.52,6.8l31.1,101C120.35,543.15,122.73,544.17,124.89,542.92Z"/><path class="cls-11" d="M124.89,542.92l139.54-80.63a6.1,6.1,0,0,0,2.52-6.8l-31.1-101c-.77-2.51-3.15-3.53-5.32-2.28L91,432.86a6.11,6.11,0,0,0-2.52,6.8l31.1,101C120.35,543.15,122.73,544.17,124.89,542.92Z"/><path class="cls-11" d="M124.89,542.92l139.54-80.63a6.1,6.1,0,0,0,2.52-6.8l-31.1-101c-.77-2.51-3.15-3.53-5.32-2.28L91,432.86a6.11,6.11,0,0,0-2.52,6.8l31.1,101C120.35,543.15,122.73,544.17,124.89,542.92Z"/><path class="cls-12" d="M132.39,512.06l94.46-54.53a4.19,4.19,0,0,0,1.73-4.67L207.22,383.5a2.43,2.43,0,0,0-3.65-1.56l-94.46,54.54a4.16,4.16,0,0,0-1.73,4.66l21.36,69.36A2.42,2.42,0,0,0,132.39,512.06Z"/><path class="cls-13" d="M145.15,513.74l94.46-54.54a4.19,4.19,0,0,0,1.73-4.67L220,385.18a2.43,2.43,0,0,0-3.65-1.57l-94.46,54.54a4.19,4.19,0,0,0-1.73,4.67l21.36,69.36A2.43,2.43,0,0,0,145.15,513.74Z"/><g class="cls-14"><path class="cls-9" d="M145.15,513.74l94.46-54.54a4.19,4.19,0,0,0,1.73-4.67L220,385.18a2.43,2.43,0,0,0-3.65-1.57l-94.46,54.54a4.19,4.19,0,0,0-1.73,4.67l21.36,69.36A2.43,2.43,0,0,0,145.15,513.74Z"/></g><path class="cls-1" d="M121.87,438.15l94.46-54.54a2.37,2.37,0,0,1,2.66.09,2.56,2.56,0,0,0-1.36.35l-94.46,54.54a4.2,4.2,0,0,0-1.74,4.67l21.37,69.35a2.8,2.8,0,0,0,1,1.48,2.51,2.51,0,0,1-2.29-1.91l-21.36-69.36A4.19,4.19,0,0,1,121.87,438.15Z"/><path class="cls-11" d="M259.83,569.25,240.35,558a3.58,3.58,0,0,1-2.09-2.89,2.71,2.71,0,0,1,1.56-2.33l37.84-21.85c2.08-1.21,5.58-1.07,8,.3l19.48,11.25a3.58,3.58,0,0,1,2.09,2.89,2.75,2.75,0,0,1-1.56,2.34l-37.84,21.84h0a7.13,7.13,0,0,1-3.5.82A9.17,9.17,0,0,1,259.83,569.25Zm18.38-37.38-37.85,21.85a1.73,1.73,0,0,0-1,1.39c0,.67.57,1.38,1.54,1.94l19.49,11.25a7.75,7.75,0,0,0,6.86.31l37.84-21.85a1.71,1.71,0,0,0,1-1.39c0-.67-.56-1.38-1.54-1.94l-19.48-11.25a8.09,8.09,0,0,0-3.93-1A6,6,0,0,0,278.21,531.87Z"/><path class="cls-2" d="M193.32,420l5.84-3.37a1.5,1.5,0,0,0,.65-1.68h0a.87.87,0,0,0-1.31-.55l-5.84,3.38a1.52,1.52,0,0,0-.65,1.67h0A.86.86,0,0,0,193.32,420Z"/><path class="cls-2" d="M179.41,428l8.61-5a1.5,1.5,0,0,0,.65-1.68h0a.86.86,0,0,0-1.31-.54l-8.61,5a1.53,1.53,0,0,0-.65,1.68h0A.86.86,0,0,0,179.41,428Z"/><path class="cls-2" d="M205.1,446l5.84-3.37a1.53,1.53,0,0,0,.65-1.68h0a.87.87,0,0,0-1.31-.55l-5.84,3.38a1.52,1.52,0,0,0-.65,1.67h0A.86.86,0,0,0,205.1,446Z"/><path class="cls-2" d="M192.7,453.16l8.61-5a1.53,1.53,0,0,0,.65-1.68h0a.86.86,0,0,0-1.31-.55l-8.61,5a1.54,1.54,0,0,0-.65,1.68h0A.86.86,0,0,0,192.7,453.16Z"/><path class="cls-2" d="M210.82,415.37l3.65-2.11a1.53,1.53,0,0,0,.65-1.68h0a.87.87,0,0,0-1.32-.54l-3.65,2.1a1.54,1.54,0,0,0-.65,1.68h0A.87.87,0,0,0,210.82,415.37Z"/><path class="cls-2" d="M199.84,427.17,211,420.74a1.54,1.54,0,0,0,.65-1.68h0a.87.87,0,0,0-1.32-.55L199.18,425a1.5,1.5,0,0,0-.65,1.68h0A.86.86,0,0,0,199.84,427.17Z"/><path class="cls-2" d="M210.12,432.17l3.65-2.11a1.53,1.53,0,0,0,.65-1.68h0a.86.86,0,0,0-1.31-.54l-3.65,2.1a1.52,1.52,0,0,0-.65,1.68h0A.86.86,0,0,0,210.12,432.17Z"/><path class="cls-2" d="M191.36,464.87l9.74-5.63a1.53,1.53,0,0,0,.65-1.68h0a.86.86,0,0,0-1.31-.54l-9.75,5.62a1.54,1.54,0,0,0-.65,1.68h0A.87.87,0,0,0,191.36,464.87Z"/><path class="cls-2" d="M214.21,440.74l2.34-1.35a1.53,1.53,0,0,0,.65-1.68h0a.87.87,0,0,0-1.31-.55l-2.34,1.36a1.5,1.5,0,0,0-.65,1.68h0A.86.86,0,0,0,214.21,440.74Z"/><path class="cls-2" d="M216.43,450.4l2.9-1.68A1.51,1.51,0,0,0,220,447h0a.86.86,0,0,0-1.31-.55l-2.91,1.68a1.53,1.53,0,0,0-.65,1.68h0A.88.88,0,0,0,216.43,450.4Z"/><path class="cls-2" d="M205.11,456.93l7.67-4.43a1.53,1.53,0,0,0,.65-1.68h0a.86.86,0,0,0-1.31-.54l-7.67,4.42a1.53,1.53,0,0,0-.65,1.68h0A.86.86,0,0,0,205.11,456.93Z"/><path class="cls-2" d="M215.21,456.56l5.52-3.18a1.51,1.51,0,0,0,.64-1.68h0a.87.87,0,0,0-1.31-.55l-5.51,3.19a1.53,1.53,0,0,0-.65,1.68h0A.86.86,0,0,0,215.21,456.56Z"/><path class="cls-2" d="M183,469.72l3.54-2a1.54,1.54,0,0,0,.65-1.68h0a.87.87,0,0,0-1.32-.55l-3.54,2a1.54,1.54,0,0,0-.65,1.68h0A.87.87,0,0,0,183,469.72Z"/><path class="cls-2" d="M196.55,440l9.74-5.62a1.5,1.5,0,0,0,.65-1.68h0a.87.87,0,0,0-1.31-.55l-9.74,5.63a1.51,1.51,0,0,0-.65,1.68h0A.86.86,0,0,0,196.55,440Z"/><path class="cls-2" d="M195.4,435.2l17-9.8a1.53,1.53,0,0,0,.65-1.68h0a.88.88,0,0,0-1.32-.55l-17,9.81a1.53,1.53,0,0,0-.65,1.68h0A.87.87,0,0,0,195.4,435.2Z"/><path class="cls-2" d="M205.42,440.35l9.74-5.62a1.54,1.54,0,0,0,.65-1.68h0a.86.86,0,0,0-1.31-.55l-9.75,5.63a1.53,1.53,0,0,0-.65,1.68h0A.87.87,0,0,0,205.42,440.35Z"/><path class="cls-2" d="M189.16,444.27l3.54-2a1.54,1.54,0,0,0,.65-1.68h0A.86.86,0,0,0,192,440l-3.54,2.05a1.49,1.49,0,0,0-.65,1.67h0A.86.86,0,0,0,189.16,444.27Z"/><path class="cls-2" d="M153.15,443.2l21-12.11a1.5,1.5,0,0,0,.65-1.68h0a.86.86,0,0,0-1.31-.54l-21,12.1a1.5,1.5,0,0,0-.65,1.68h0A.87.87,0,0,0,153.15,443.2Z"/><path class="cls-2" d="M206.23,450.82l11.71-6.77a1.51,1.51,0,0,0,.65-1.68h0a.86.86,0,0,0-1.31-.54l-11.71,6.76a1.5,1.5,0,0,0-.65,1.68h0A.87.87,0,0,0,206.23,450.82Z"/><path class="cls-2" d="M204.46,413.57l8.61-5a1.5,1.5,0,0,0,.65-1.68h0a.86.86,0,0,0-1.31-.55l-8.61,5a1.54,1.54,0,0,0-.65,1.68h0A.86.86,0,0,0,204.46,413.57Z"/><path class="cls-2" d="M217,461l10-5.76a1.53,1.53,0,0,0,.65-1.68h0a.87.87,0,0,0-1.32-.54l-10,5.75a1.54,1.54,0,0,0-.65,1.68h0A.86.86,0,0,0,217,461Z"/><path class="cls-1" d="M150.8,432.41l4.26-2.46a1.12,1.12,0,0,0,.48-1.23h0a.63.63,0,0,0-1-.4l-4.27,2.47a1.09,1.09,0,0,0-.47,1.22h0A.63.63,0,0,0,150.8,432.41Z"/><path class="cls-1" d="M142.65,437.12l4.27-2.47a1.12,1.12,0,0,0,.48-1.23h0a.64.64,0,0,0-1-.4l-4.27,2.47a1.12,1.12,0,0,0-.48,1.23h0A.64.64,0,0,0,142.65,437.12Z"/><path class="cls-1" d="M134.51,441.82l4.27-2.47a1.1,1.1,0,0,0,.47-1.23h0a.63.63,0,0,0-.95-.4L134,440.19a1.12,1.12,0,0,0-.48,1.23h0A.64.64,0,0,0,134.51,441.82Z"/><path class="cls-1" d="M130.51,444.13l.13-.08a1.11,1.11,0,0,0,.47-1.22h0a.63.63,0,0,0-1-.4l-.13.07a1.13,1.13,0,0,0-.47,1.23h0A.63.63,0,0,0,130.51,444.13Z"/><path class="cls-3" d="M343,492l-28.59-16.51a4,4,0,0,1,0-6.86L343,452.12a15.69,15.69,0,0,1,15.63,0l28.59,16.51a4,4,0,0,1,0,6.86L358.64,492h0A15.72,15.72,0,0,1,343,492Zm43.29-18.12a2.1,2.1,0,0,0,0-3.64l-28.59-16.51a13.82,13.82,0,0,0-13.77,0l-28.59,16.51a2.1,2.1,0,0,0,0,3.64l28.59,16.51a13.82,13.82,0,0,0,13.77,0Z"/><polyline class="cls-4" points="308.62 343.56 316.76 411.06 272.4 439.21"/><circle class="cls-3" cx="309.21" cy="347.28" r="5.18"/><polyline class="cls-4" points="69.25 266.48 77.71 333.94 127.57 350.5"/><circle class="cls-3" cx="69.58" cy="270.23" r="5.18"/><circle class="cls-2" cx="59.3" cy="78.06" r="5.18"/><circle class="cls-3" cx="106" cy="17.71" r="5.18"/><circle class="cls-3" cx="139.32" cy="115.91" r="5.18"/><circle class="cls-2" cx="25.88" cy="253.75" r="5.18"/><path class="cls-15" d="M431,635A213,213,0,0,0,545,529"/><path class="cls-15" d="M585.5,456.5c6.51-16.65,12.91-34.32,19-53,7.51-23,13.77-45.08,19-66"/><path class="cls-15" d="M650,270a340.91,340.91,0,0,1,97-132"/><path class="cls-15" d="M848,71a660.2,660.2,0,0,1,185-45"/></svg>