<svg id="Layer_1" data-name="Layer 1" xmlns="http://www.w3.org/2000/svg" viewBox="0 0 432 432"><defs><style>.cls-1{fill:#009cde;opacity:0.26;isolation:isolate;}.cls-2{fill:#f2f2f2;opacity:0;}.cls-3,.cls-7,.cls-8{fill:none;stroke-miterlimit:10;}.cls-3{stroke:#00f3c7;stroke-width:10px;}.cls-4{fill:#00f3c7;}.cls-5{fill:#fff;}.cls-6{fill:#001c75;}.cls-7{stroke:#fff;opacity:0.65;}.cls-8{stroke:#001c75;stroke-width:2px;}</style></defs><path class="cls-1" d="M110,333.34c-8.16-11.34-22.8-31.79-21.49-58.1,3-59.84,79.38-98.63,85.43-101.58,11.5-5.61,18-7,31.55-15.4,8-5,28.65-18.78,50.93-47.75,29.21-38,30.2-61.55,42.18-61.27s21,25,28.93,47.23a263.59,263.59,0,0,1,14.84,69.75c1.95,28.21,6.76,98.68-38.88,157-1.51,1.91-2.58,3.22-2.94,3.66-12.65,15.36-56.62,63.55-114.36,54.83C142.33,375,117.14,343.25,110,333.34Z"/><path class="cls-2" d="M350.24,312.68H51.35a9.63,9.63,0,0,1-9.62-9.62V123.47a7.06,7.06,0,0,1,7.05-7H352.69a7.18,7.18,0,0,1,7.17,7.17V303.06A9.63,9.63,0,0,1,350.24,312.68Z"/><path class="cls-3" d="M60.67,303.06H340.92a9.32,9.32,0,0,0,9.32-9.32V141.3a9.32,9.32,0,0,0-9.32-9.32H60.67a9.32,9.32,0,0,0-9.32,9.32V293.74A9.32,9.32,0,0,0,60.67,303.06Z"/><path class="cls-4" d="M359.73,122.92H41.6V118a9.66,9.66,0,0,1,9.65-9.65H350.07a9.67,9.67,0,0,1,9.66,9.65Z"/><circle class="cls-5" cx="59.14" cy="115.66" r="2.5"/><circle class="cls-5" cx="68.61" cy="115.66" r="2.5"/><circle class="cls-5" cx="78.09" cy="115.66" r="2.5"/><path class="cls-6" d="M209.54,323.63H184.48a5.55,5.55,0,0,1-5.54-5.54V293a5.55,5.55,0,0,1,5.54-5.54h25.06a5.55,5.55,0,0,1,5.54,5.54v25.06A5.55,5.55,0,0,1,209.54,323.63Zm-25.06-35a4.37,4.37,0,0,0-4.37,4.37v25.06a4.37,4.37,0,0,0,4.37,4.37h25.06a4.37,4.37,0,0,0,4.37-4.37V293a4.37,4.37,0,0,0-4.37-4.37Z"/><path class="cls-6" d="M204.59,316.63H189.43a1.76,1.76,0,0,1-1.75-1.75V296.23a1.77,1.77,0,0,1,1.75-1.75h11a1.82,1.82,0,0,1,1.1.39l4.17,3.35a1.71,1.71,0,0,1,.65,1.37v15.29A1.74,1.74,0,0,1,204.59,316.63Zm-15.16-21a.58.58,0,0,0-.58.58v18.65a.58.58,0,0,0,.58.59h15.16a.58.58,0,0,0,.58-.59V299.59a.58.58,0,0,0-.22-.46l-4.17-3.35a.62.62,0,0,0-.37-.13Z"/><path class="cls-6" d="M201.67,302.64h-9.32a.58.58,0,1,1,0-1.16h9.32a.58.58,0,0,1,0,1.16Z"/><path class="cls-6" d="M201.67,306.14h-9.32a.58.58,0,1,1,0-1.16h9.32a.58.58,0,0,1,0,1.16Z"/><path class="cls-6" d="M201.67,309.64h-9.32a.59.59,0,1,1,0-1.17h9.32a.59.59,0,0,1,0,1.17Z"/><path class="cls-6" d="M269,270H243.93a5.55,5.55,0,0,1-5.54-5.54V239.41a5.54,5.54,0,0,1,5.54-5.54H269a5.54,5.54,0,0,1,5.53,5.54v25.06A5.54,5.54,0,0,1,269,270Zm-25.06-35a4.37,4.37,0,0,0-4.37,4.37v25.06a4.37,4.37,0,0,0,4.37,4.37H269a4.37,4.37,0,0,0,4.37-4.37V239.41A4.37,4.37,0,0,0,269,235Z"/><path class="cls-6" d="M264.62,258.35H248.3a1.75,1.75,0,0,1-1.75-1.75v-9.32a1.75,1.75,0,0,1,1.75-1.75h16.32a1.76,1.76,0,0,1,1.75,1.75v9.32A1.76,1.76,0,0,1,264.62,258.35ZM248.3,246.69a.6.6,0,0,0-.59.59v9.32a.6.6,0,0,0,.59.58h16.32a.58.58,0,0,0,.58-.58v-9.32a.58.58,0,0,0-.58-.59Z"/><path class="cls-6" d="M256.46,253.48a1.71,1.71,0,0,1-.93-.27l-8.71-5.44a.58.58,0,0,1-.18-.8.58.58,0,0,1,.8-.19l8.71,5.44a.58.58,0,0,0,.62,0l8.7-5.44a.58.58,0,1,1,.62,1l-8.71,5.44A1.68,1.68,0,0,1,256.46,253.48Z"/><path class="cls-6" d="M150.09,270H125a5.55,5.55,0,0,1-5.54-5.54V239.41a5.55,5.55,0,0,1,5.54-5.54h25.06a5.54,5.54,0,0,1,5.54,5.54v25.06A5.55,5.55,0,0,1,150.09,270ZM125,235a4.37,4.37,0,0,0-4.37,4.37v25.06a4.37,4.37,0,0,0,4.37,4.37h25.06a4.37,4.37,0,0,0,4.37-4.37V239.41a4.37,4.37,0,0,0-4.37-4.37Z"/><path class="cls-6" d="M145.72,258.35H129.4a1.75,1.75,0,0,1-1.75-1.75v-9.32a1.75,1.75,0,0,1,1.75-1.75h16.32a1.75,1.75,0,0,1,1.75,1.75v9.32A1.75,1.75,0,0,1,145.72,258.35ZM129.4,246.69a.58.58,0,0,0-.58.59v9.32a.58.58,0,0,0,.58.58h16.32a.58.58,0,0,0,.58-.58v-9.32a.58.58,0,0,0-.58-.59Z"/><path class="cls-6" d="M143.13,258.35H131.41a1.17,1.17,0,0,1-1.17-1.17,1.1,1.1,0,0,1,.16-.58l3.53-6.12a1.15,1.15,0,0,1,1.59-.42,1.09,1.09,0,0,1,.43.42l2.28,4,1.32-2.29a1.17,1.17,0,0,1,1.59-.42,1.16,1.16,0,0,1,.43.42l2.57,4.46a1.16,1.16,0,0,1-.42,1.59,1.11,1.11,0,0,1-.59.16Zm0-1.17h0l-2.57-4.45-1.83,3.16a.57.57,0,0,1-.5.29h0a.6.6,0,0,1-.51-.29l-2.78-4.83-3.53,6.12Z"/><circle class="cls-6" cx="143.97" cy="249.02" r="1.17"/><path class="cls-7" d="M380.5,204.38H203.32a9.64,9.64,0,0,1-9.62-9.62V156.88a9.64,9.64,0,0,1,9.62-9.62H380.5a9.63,9.63,0,0,1,9.61,9.62v37.88A9.63,9.63,0,0,1,380.5,204.38Z"/><path class="cls-6" d="M380.49,204.67H203.32a9.93,9.93,0,0,1-9.91-9.91V156.88a9.92,9.92,0,0,1,9.91-9.91H380.49a9.91,9.91,0,0,1,9.91,9.91v37.88A9.92,9.92,0,0,1,380.49,204.67ZM203.32,148.13a8.77,8.77,0,0,0-8.75,8.75v37.88a8.75,8.75,0,0,0,8.75,8.74H380.49a8.75,8.75,0,0,0,8.75-8.74V156.88a8.77,8.77,0,0,0-8.75-8.75Z"/><path class="cls-4" d="M358.93,195.05h-134a9.63,9.63,0,0,1-9.62-9.61V165.62a9.64,9.64,0,0,1,9.62-9.62H358.93a9.64,9.64,0,0,1,9.62,9.62v19.82A9.63,9.63,0,0,1,358.93,195.05Z"/><circle class="cls-6" cx="235.66" cy="172.87" r="11.5"/><path class="cls-6" d="M350.6,193.89l-16.23-13.61-16-13.38a2.33,2.33,0,0,0-3,0l-15.9,13.44-3.88,3.29-5.86-4.91L272,163.79a2.33,2.33,0,0,0-3,0l-17.74,15-18,15.23a.58.58,0,0,0-.07.82.6.6,0,0,0,.45.21l36.94-.07,11.69,0-.11.1L317,195l33.26-.06a.58.58,0,0,0,.37-1Z"/><path class="cls-5" d="M89.19,218.07H64.13a5.54,5.54,0,0,1-5.54-5.53V187.47a5.54,5.54,0,0,1,5.54-5.53H89.19a5.54,5.54,0,0,1,5.53,5.53v25.07A5.54,5.54,0,0,1,89.19,218.07Z"/><path class="cls-6" d="M89.19,218.07H64.13a5.54,5.54,0,0,1-5.54-5.53V187.47a5.54,5.54,0,0,1,5.54-5.53H89.19a5.54,5.54,0,0,1,5.53,5.53v25.07A5.54,5.54,0,0,1,89.19,218.07Zm-25.06-35a4.39,4.39,0,0,0-4.38,4.37v25.07a4.39,4.39,0,0,0,4.38,4.37H89.19a4.38,4.38,0,0,0,4.37-4.37V187.47a4.38,4.38,0,0,0-4.37-4.37Z"/><line class="cls-8" x1="61.5" y1="192.15" x2="91.81" y2="192.15"/></svg>