<svg id="Layer_1" data-name="Layer 1" xmlns="http://www.w3.org/2000/svg" viewBox="0 0 432 432"><defs><style>.cls-1{fill:#009cde;opacity:0.26;isolation:isolate;}.cls-2{fill:#001c75;}.cls-3{fill:#00f3c7;}</style></defs><path class="cls-1" d="M110,333.34c-8.16-11.34-22.8-31.79-21.49-58.1,3-59.84,79.38-98.63,85.43-101.58,11.5-5.61,18-7,31.55-15.4,8-5,28.65-18.78,50.93-47.75,29.21-38,30.2-61.55,42.18-61.27s21,25,28.93,47.23a263.59,263.59,0,0,1,14.84,69.75c1.95,28.21,6.76,98.68-38.88,157-1.51,1.91-2.58,3.22-2.94,3.66-12.65,15.36-56.62,63.55-114.36,54.83C142.33,375,117.14,343.25,110,333.34Z"/><path class="cls-2" d="M350.52,152.92h-269a13.83,13.83,0,0,1-13.81-13.81V126.56a13.83,13.83,0,0,1,13.81-13.81h269a13.83,13.83,0,0,1,13.81,13.81v12.55A13.83,13.83,0,0,1,350.52,152.92Zm-269-39.33a13,13,0,0,0-13,13v12.55a13,13,0,0,0,13,13h269a13,13,0,0,0,13-13V126.56a13,13,0,0,0-13-13Z"/><rect class="cls-2" x="94.03" y="124.89" width="194.57" height="15.9" rx="7.95"/><rect class="cls-3" x="117.46" y="194.61" width="194.57" height="15.9" rx="7.95"/><rect class="cls-2" x="117.46" y="245.17" width="194.57" height="15.9" rx="7.95"/><rect class="cls-2" x="117.46" y="295.72" width="194.57" height="15.9" rx="7.95"/><path class="cls-3" d="M338.18,141.42a1.25,1.25,0,0,1-1.75.31L329.6,137a1.25,1.25,0,1,1,1.44-2h0l6.83,4.75A1.25,1.25,0,0,1,338.18,141.42Z"/><path class="cls-3" d="M330.42,136a8.89,8.89,0,1,1-2.18-12.38h0A8.9,8.9,0,0,1,330.42,136Zm-12.74-8.92a6.67,6.67,0,1,0,9.28-1.64A6.67,6.67,0,0,0,317.68,127.1Z"/><path class="cls-2" d="M342.78,218.1H89.22a.42.42,0,0,1-.42-.42.41.41,0,0,1,.41-.42H342.78a.42.42,0,0,1,.42.42.41.41,0,0,1-.41.42Z"/><path class="cls-2" d="M342.78,268.67H89.22a.42.42,0,1,1,0-.83H342.78a.42.42,0,1,1,0,.83Z"/><path class="cls-2" d="M342.78,319.25H89.22a.42.42,0,0,1,0-.84H342.78a.42.42,0,1,1,0,.84Z"/></svg>