<svg id="Layer_1" data-name="Layer 1" xmlns="http://www.w3.org/2000/svg" width="432" height="432" viewBox="0 0 432 432"><defs><style>.cls-1{fill:#009cde;opacity:0.26;}.cls-2{fill:#007c89;}</style></defs><title>servicesMailchimp</title><path class="cls-1" d="M123,337.79c-8.16-11.34-22.8-31.79-21.49-58.1,3-59.84,79.38-98.63,85.43-101.58,11.5-5.61,18-7,31.55-15.4,8-5,28.65-18.78,50.93-47.75,29.21-38,30.2-61.55,42.18-61.27s21,25,28.93,47.23a263.46,263.46,0,0,1,14.84,69.75c1.95,28.21,6.76,98.68-38.88,157-1.51,1.91-2.58,3.22-2.94,3.66-12.65,15.36-56.62,63.55-114.36,54.83C155.3,379.49,130.11,347.7,123,337.79Z"/><path class="cls-2" d="M275.66,214.42a21.69,21.69,0,0,1,5.46,0c1-2.25,1.14-6.12.26-10.33-1.31-6.26-3.08-10.06-6.74-9.47s-3.79,5.13-2.49,11.4a20.92,20.92,0,0,0,3.53,8.4Zm-31.44,5c2.63,1.17,4.23,1.91,4.86,1.25,1.11-1.14-2-5.51-7.11-7.68a18.43,18.43,0,0,0-18,2.16c-1.76,1.28-3.41,3.06-3.18,4.14.5,2.19,5.87-1.59,13.27-2a21.29,21.29,0,0,1,10.12,2.17Zm-5.28,3c-5.32.83-8.8,3.83-7.9,5.93.53.2.68.47,3.06-.48a21.62,21.62,0,0,1,11-1.14c1.72.2,2.53.3,2.9-.29.86-1.3-3.35-4.7-9-4Zm31.79,10c2-4-6.39-8.17-8.39-4.1s6.41,8.14,8.41,4.09Zm9.19-12c-4.49-.07-4.66,9.27-.15,9.35s4.68-9.28.17-9.37Zm-128.4,46.31c-.77.18-3.52.85-5-1.38-3.05-4.7,6.52-12,1.76-21-5.34-10.25-16.32-7.94-20.57-3.25-5.11,5.64-5.11,13.82-2.93,14.13,2.5.34,2.39-3.79,4.33-6.82a7.52,7.52,0,0,1,10.41-2.22l.06,0c6.81,4.45.81,10.42,1.34,16.79.82,9.79,10.81,9.61,12.67,5.28a1.21,1.21,0,0,0-.12-1.36c0,.52.4-.77-2-.23Zm175.9-10a97.14,97.14,0,0,0-4-12.05c1.44-2.15,9-14.08-1.8-25.38-6.1-6.41-19.9-9.7-24.12-10.88-.88-6.68,2.73-34.45-12.63-48.71,12.2-12.65,19.81-26.58,19.79-38.53,0-23-28.25-29.93-63-15.53l-7.36,3.13S221,95.7,220.75,95.52c-39.64-34.58-163.63,103.23-124,136.7l8.66,7.34a42.6,42.6,0,0,0-2.4,19.66c2,19.6,21.13,35.46,39.63,35.44,33.88,78.09,157.22,78.22,189.14,1.76,1-2.62,5.35-14.44,5.35-24.87s-5.92-14.83-9.7-14.83ZM142,285c-13.39-.36-27.85-12.41-29.29-26.71-3.62-36,43.58-44.17,49.29-7.23,2.67,17.39-2.74,34.32-20,33.92Zm-10.86-67a34,34,0,0,0-21.54,13.76c-2.87-2.39-8.22-7-9.15-8.8-7.64-14.58,8.35-42.84,19.54-58.81,27.65-39.46,70.94-69.32,91-63.9,3.25.92,14,13.43,14,13.43a281.77,281.77,0,0,0-38.61,26.62c-25,19.28-43.95,47.29-55.28,77.7ZM271.3,277.32s-21,3.11-40.8-4.15c3.65-11.83,15.85,3.58,56.58-8.1,9-2.57,20.76-7.63,29.93-14.88a60.56,60.56,0,0,1,4.18,14.25c2.14-.39,8.36-.3,6.71,10.62C326,286.72,321,296.19,312.68,304.9a62.58,62.58,0,0,1-18.28,13.68,77.08,77.08,0,0,1-11.93,5c-31.41,10.26-63.56-1-74-25.23a38.71,38.71,0,0,1-2.08-5.72c-4.42-16-.67-35.11,11.05-47.16a4.3,4.3,0,0,0,1.46-2.81,5,5,0,0,0-1.13-2.67c-4.11-5.94-18.3-16.08-15.45-35.7,2-14.08,14.37-24,25.86-23.42l2.94.17c5,.29,9.32.93,13.42,1.1,6.86.3,13-.7,20.33-6.78,2.47-2.06,4.45-3.84,7.79-4.41a10.25,10.25,0,0,1,8,1.32c5.87,3.89,6.69,13.34,7,20.24.17,3.94.65,13.5.81,16.21.37,6.26,2,7.14,5.35,8.22,1.87.62,3.61,1.07,6.17,1.79,7.75,2.18,12.32,4.39,15.26,7.23a9.64,9.64,0,0,1,2.78,5.45c.91,6.67-5.18,14.91-21.31,22.4-27.41,12.72-55,8.48-59,8-11.83-1.59-18.56,13.69-11.47,24.15,13.28,19.61,71.83,11.74,88.83-12.53.41-.58.07-.93-.43-.58-24.51,16.77-57,22.42-75.39,15.26-2.8-1.09-8.64-3.78-9.35-9.79,25.59,7.92,41.67.44,41.67.44s1.19-1.64-.33-1.49ZM182.17,163.94c9.82-11.36,21.92-21.23,32.76-26.78a.43.43,0,0,1,.59.59,31.38,31.38,0,0,0-3,7.42.44.44,0,0,0,.68.46c6.74-4.59,18.47-9.51,28.75-10.15a.44.44,0,0,1,.48.42.45.45,0,0,1-.17.39,25,25,0,0,0-4.53,4.54.45.45,0,0,0,.1.62.44.44,0,0,0,.25.08,56.51,56.51,0,0,1,24.06,6.31c.45.25.13,1.12-.37,1-40.82-9.35-72.24,10.88-78.94,15.75a.46.46,0,0,1-.62-.13.47.47,0,0,1,0-.53Z"/></svg>