<svg id="Layer_1" data-name="Layer 1" xmlns="http://www.w3.org/2000/svg" width="432" height="432" viewBox="0 0 432 432"><defs><style>.cls-1{fill:#009cde;opacity:0.26;}.cls-2{fill:#56c1be;}</style></defs><title>servicesDesarrolloWeb</title><path class="cls-1" d="M127,338.79c-8.16-11.34-22.8-31.79-21.49-58.1,3-59.84,79.38-98.63,85.43-101.58,11.5-5.61,18-7,31.55-15.4,8-5,28.65-18.78,50.93-47.75,29.21-38,30.2-61.55,42.18-61.27s21,25,28.93,47.23a263.46,263.46,0,0,1,14.84,69.75c1.95,28.21,6.76,98.68-38.88,157-1.51,1.91-2.58,3.22-2.94,3.66-12.65,15.36-56.62,63.55-114.36,54.83C159.3,380.49,134.11,348.7,127,338.79Z"/><path class="cls-2" d="M108,107.5V324h5V107.25Z"/><path class="cls-2" d="M319.5,108V324h5V107.75Z"/><path class="cls-2" d="M108.37,324l214.63.21v-5L108.13,319Z"/><path class="cls-2" d="M108.37,112.52l216.13.21v-5l-216.37-.21Z"/><path class="cls-2" d="M109.37,139l213.13.21v-5L109.13,134Z"/><circle class="cls-2" cx="300.75" cy="123.75" r="5.75"/><circle class="cls-2" cx="281.75" cy="123.75" r="5.75"/><circle class="cls-2" cx="264.75" cy="124.75" r="5.75"/></svg>